<svg width="30" height="30" viewBox="0 0 30 30" fill="none" xmlns="http://www.w3.org/2000/svg">
<path d="M18.0798 21.0517C18.0798 21.0517 20.4698 19.6834 21.0955 19.3546C21.7194 19.0247 22.3658 18.9414 22.7583 19.1811C23.3527 19.5447 28.3441 22.8651 28.7643 23.159C29.1846 23.4536 29.3871 24.2947 28.8092 25.1188C28.2337 25.9428 25.5786 29.2012 24.4536 29.1664C23.3267 29.1298 18.6417 29.0271 9.80704 20.1899C0.974156 11.3556 0.869677 6.66936 0.83367 5.5425C0.797663 4.41623 4.05599 1.76053 4.88001 1.18441C5.70522 0.608879 6.54754 0.825514 6.84032 1.23045C7.17323 1.69147 10.4552 6.667 10.8164 7.23721C11.0637 7.6268 10.9728 8.27671 10.6429 8.90123C10.3147 9.52694 8.94642 11.917 8.94642 11.917C8.94642 11.917 9.91093 13.5621 13.1728 16.8235C16.4353 20.0854 18.0798 21.0517 18.0798 21.0517Z" stroke="#D9D9D9" stroke-width="2" stroke-miterlimit="10"/>
</svg>
