<svg width="31" height="31" viewBox="0 0 31 31" fill="none" xmlns="http://www.w3.org/2000/svg">
<path d="M25.7563 0.787615C26.7454 1.17226 27.5819 1.68513 28.4184 2.52159C29.2548 3.35194 29.7677 4.19451 30.1523 5.1775C30.5248 6.12996 30.7751 7.22286 30.8484 8.82251C30.9216 10.4222 30.9399 10.935 30.9399 15.0135C30.9399 19.092 30.9216 19.6049 30.8484 21.2045C30.7751 22.8042 30.5187 23.8971 30.1523 24.8496C29.7677 25.8386 29.2548 26.6751 28.4184 27.5116C27.5819 28.348 26.7454 28.8609 25.7563 29.2455C24.8039 29.618 23.711 29.8683 22.1113 29.9416C20.5117 30.0148 19.9988 30.0332 15.9203 30.0332C11.8418 30.0332 11.3289 30.0148 9.72929 29.9416C8.12964 29.8683 7.03675 29.6119 6.08429 29.2455C5.09519 28.8609 4.25873 28.348 3.42227 27.5116C2.58581 26.6751 2.07295 25.8386 1.6883 24.8496C1.31586 23.8971 1.06553 22.8042 0.992264 21.2045C0.918999 19.6049 0.900681 19.092 0.900681 15.0135C0.900681 10.935 0.918999 10.4222 0.992264 8.82251C1.06553 7.22286 1.32196 6.12996 1.6883 5.1775C2.07295 4.19451 2.58581 3.35194 3.41616 2.52159C4.25262 1.68513 5.08908 1.17226 6.07818 0.787615C7.03065 0.415177 8.12354 0.16485 9.72319 0.0915831C11.3228 0.0183166 11.8357 0 15.9142 0C19.9927 0 20.5056 0.0183166 22.1052 0.0915831C23.711 0.158744 24.8039 0.415177 25.7563 0.787615ZM9.8514 2.79023C8.38607 2.85739 7.59236 3.10161 7.06117 3.3092C6.35904 3.58395 5.85838 3.90755 5.3333 4.43262C4.80823 4.9577 4.48463 5.45835 4.20988 6.16049C4.0023 6.69167 3.75808 7.48539 3.69091 8.95072C3.61765 10.5321 3.60544 11.0083 3.60544 15.0196C3.60544 19.031 3.62375 19.5072 3.69091 21.0885C3.75808 22.5539 4.0023 23.3476 4.20988 23.8788C4.48463 24.5809 4.80823 25.0816 5.3333 25.6066C5.85838 26.1317 6.35904 26.4553 7.06117 26.7301C7.59236 26.9376 8.38607 27.1819 9.8514 27.249C11.4327 27.3223 11.909 27.3345 15.9203 27.3345C19.9317 27.3345 20.4079 27.3162 21.9892 27.249C23.4545 27.1819 24.2483 26.9376 24.7795 26.7301C25.4816 26.4553 25.9822 26.1317 26.5073 25.6066C27.0324 25.0816 27.356 24.5809 27.6307 23.8788C27.8383 23.3476 28.0825 22.5539 28.1497 21.0885C28.223 19.5072 28.2352 19.031 28.2352 15.0196C28.2352 11.0083 28.2169 10.5321 28.1497 8.95072C28.0825 7.48539 27.8383 6.69167 27.6307 6.16049C27.356 5.45835 27.0324 4.9577 26.5073 4.43262C25.9822 3.90755 25.4816 3.58395 24.7795 3.3092C24.2483 3.10161 23.4545 2.85739 21.9892 2.79023C20.4079 2.71697 19.9317 2.70475 15.9203 2.70475C11.909 2.70475 11.4327 2.71697 9.8514 2.79023Z" fill="white"/>
<path d="M23.6316 15.0196C23.6316 19.2813 20.1759 22.7309 15.9203 22.7309C11.6647 22.7309 8.209 19.2752 8.209 15.0196C8.209 10.7641 11.6586 7.30835 15.9203 7.30835C20.182 7.30835 23.6316 10.758 23.6316 15.0196ZM10.9137 15.0196C10.9137 17.7855 13.1545 20.0262 15.9203 20.0262C18.6861 20.0262 20.9268 17.7855 20.9268 15.0196C20.9268 12.2538 18.6861 10.0131 15.9203 10.0131C13.1545 10.0131 10.9137 12.2538 10.9137 15.0196Z" fill="white"/>
<path d="M7.89766 8.8042C6.90292 8.8042 6.09652 7.99781 6.09652 7.00307C6.09652 6.00833 6.90292 5.20193 7.89766 5.20193C8.8924 5.20193 9.69879 6.00833 9.69879 7.00307C9.69879 7.99781 8.8924 8.8042 7.89766 8.8042Z" fill="white"/>
</svg>
