<svg width="30" height="30" viewBox="0 0 30 30" fill="none" xmlns="http://www.w3.org/2000/svg">
<g clip-path="url(#clip0_343_143)">
<path d="M26.1177 3.5293H3.88235C2.2255 3.5293 0.882355 4.87244 0.882355 6.5293V23.4705C0.882355 25.1273 2.2255 26.4705 3.88235 26.4705H26.1177C27.7745 26.4705 29.1176 25.1273 29.1176 23.4705V6.5293C29.1176 4.87244 27.7745 3.5293 26.1177 3.5293Z" stroke="#CA3232" stroke-width="2" stroke-miterlimit="10" stroke-linecap="round"/>
<path d="M0.833332 7.5C0.833332 7.5 11.7445 16.6695 12.6334 17.4156C13.5223 18.1618 14.4479 18.3333 15 18.3333C15.5521 18.3333 16.4777 18.1624 17.3666 17.4162C18.2555 16.6701 29.1667 7.50057 29.1667 7.50057" stroke="#CA3232" stroke-width="1.9959" stroke-miterlimit="10"/>
</g>
<defs>
<clipPath id="clip0_343_143">
<rect width="30" height="30" fill="white"/>
</clipPath>
</defs>
</svg>
