<svg width="30" height="30" viewBox="0 0 30 30" fill="none" xmlns="http://www.w3.org/2000/svg">
<g clip-path="url(#clip0_98_9)">
<path d="M26.1176 3.52942H3.88232C2.22547 3.52942 0.882324 4.87257 0.882324 6.52942V23.4706C0.882324 25.1275 2.22547 26.4706 3.88232 26.4706H26.1176C27.7745 26.4706 29.1176 25.1274 29.1176 23.4706V6.52942C29.1176 4.87256 27.7745 3.52942 26.1176 3.52942Z" stroke="#D9D9D9" stroke-width="2" stroke-miterlimit="10" stroke-linecap="round"/>
<path d="M0.833374 7.5C0.833374 7.5 11.7445 16.6695 12.6334 17.4156C13.5223 18.1618 14.448 18.3333 15 18.3333C15.5521 18.3333 16.4778 18.1624 17.3667 17.4162C18.2556 16.6701 29.1667 7.50057 29.1667 7.50057" stroke="#D9D9D9" stroke-width="1.9959" stroke-miterlimit="10"/>
</g>
<defs>
<clipPath id="clip0_98_9">
<rect width="30" height="30" fill="white"/>
</clipPath>
</defs>
</svg>
