<svg width="94" height="94" viewBox="0 0 94 94" fill="none" xmlns="http://www.w3.org/2000/svg">
<path d="M46.9229 18.2784C62.1007 18.2734 74.4068 30.5745 74.4118 45.7507C74.4151 56.8663 67.7232 66.8875 57.4565 71.1454C47.1899 75.4016 35.3679 73.0555 27.5071 65.1963C19.6446 57.3405 17.2902 45.5219 21.5381 35.2519C25.7894 24.9802 35.8073 18.2834 46.9229 18.2784Z" fill="#CA3232"/>
<path d="M6.0834 6.80797C6.72175 6.88424 7.35844 6.96217 8.02995 7.10144C8.6998 7.24238 9.40116 7.44632 10.0893 7.69668C10.7773 7.94373 11.4538 8.23887 12.2464 8.66665C13.0373 9.09442 13.9426 9.65484 14.7467 10.1904C15.5509 10.7276 16.2522 11.2366 16.8641 11.7274C17.4759 12.2199 17.9998 12.6907 18.605 13.2329C19.2102 13.7751 19.9 14.3869 20.4852 14.9357C21.0722 15.4846 21.5563 15.9687 22.0919 16.5043C22.6275 17.0398 23.2144 17.6268 23.5079 17.9202C23.8014 18.2137 23.8014 18.2137 23.5526 18.4243C23.3039 18.6349 22.8065 19.056 22.3141 19.5103C21.8233 19.963 21.3391 20.4471 21.0971 20.6892C20.855 20.9329 20.855 20.9329 20.5167 20.5997C20.1785 20.268 19.502 19.6048 18.6398 18.7576C17.7793 17.9086 16.7331 16.8757 15.2276 15.4663C13.722 14.0553 12.4056 12.6609 10.3164 10.9597C12.1469 13.1765 13.6441 14.7434 15.3735 16.5938C17.1028 18.4442 18.6332 20.0127 19.3992 20.8102C20.1636 21.6077 20.1636 21.6343 19.9414 21.8946C19.7192 22.1566 19.2716 22.654 18.8504 23.158C18.4293 23.6621 18.0346 24.1728 17.8373 24.4264C17.64 24.6818 17.64 24.6818 17.1741 24.2092C16.7082 23.7367 15.778 22.7949 14.8263 21.8051C13.8762 20.8152 12.9063 19.7839 12.0325 18.7625C11.1587 17.7428 10.3811 16.7347 9.74935 15.8228C9.11929 14.9076 8.63348 14.0918 8.2455 13.3639C7.85751 12.6377 7.56238 11.9993 7.25067 11.2217C6.93895 10.4441 6.60734 9.52552 6.40838 8.76613C6.21107 8.00674 6.1464 7.40653 6.0834 6.80797Z" fill="white"/>
<path d="M72.0888 71.5102C72.8151 70.7906 73.3473 70.2368 73.6839 69.8471C74.0221 69.4575 74.1929 69.2701 74.1995 69.2884C74.2045 69.305 74.5776 69.673 75.3137 70.3893C76.0516 71.1073 76.4263 71.4654 76.4379 71.4654C76.4512 71.4654 76.3069 71.6378 76.0085 71.9827C75.7084 72.3259 75.3569 72.7255 74.9556 73.1782C74.5527 73.6308 74.3471 73.8547 74.3338 73.848C74.3206 73.8414 74.3073 73.8314 74.2957 73.8198C74.2824 73.8066 74.0404 73.5728 73.5678 73.1218C73.0953 72.6675 72.7438 72.3293 72.51 72.1038C72.2762 71.8799 72.112 71.7141 72.0175 71.6063" fill="white"/>
<path d="M68.5025 74.5626C69.2602 73.9674 69.8173 73.5081 70.1721 73.1815C70.5286 72.8548 70.7226 72.7089 70.7574 72.7421C70.7906 72.7753 71.2101 73.1831 72.0126 73.9641L73.218 75.1363L72.6675 75.5857C72.3011 75.8858 71.8998 76.2124 71.4654 76.5656C71.031 76.9187 70.8055 77.0912 70.7939 77.0845C70.7806 77.0779 70.7674 77.068 70.7558 77.0564C70.7442 77.0431 70.5004 76.811 70.0279 76.3567C69.5553 75.904 69.2038 75.5658 68.97 75.3403C68.7363 75.1148 68.5323 74.9125 68.3582 74.7334" fill="white"/>
<path d="M76.9834 77.8274C77.5256 77.2852 77.9351 76.8823 78.212 76.6219C78.4906 76.36 78.6912 76.1643 78.8155 76.0333L79.0013 75.836L79.2831 76.1759C79.4705 76.4031 79.6711 76.6369 79.8817 76.8789L80.1984 77.2421L79.4705 77.965C78.9863 78.4475 78.3894 79.051 77.6814 79.7739L76.6186 80.8599L75.1264 79.7689" fill="white"/>
<path d="M79.3478 80.0093C80.457 78.8868 81.0092 78.3231 81.0025 78.3165C80.9959 78.3098 81.1816 78.5519 81.558 79.0427C81.9343 79.5351 82.1184 79.7822 82.1118 79.7888C82.1051 79.7971 81.8415 80.0574 81.3175 80.5731C80.7953 81.0904 80.2978 81.5978 79.8253 82.0935L79.1173 82.8396L78.3795 82.2859C77.8887 81.9161 77.6367 81.7304 77.6234 81.7304" fill="white"/>
<path d="M81.422 82.3223C82.4119 81.3656 82.906 80.8865 82.906 80.8831C82.906 80.8798 83.0967 81.112 83.4797 81.5812L84.0517 82.2842L82.833 83.551L81.6127 84.8194L80.8765 84.2026L80.1387 83.5841" fill="white"/>
<path d="M21.6177 71.4936C20.8915 70.7757 20.3592 70.2202 20.0227 69.8306C19.6861 69.4409 19.5136 69.2536 19.507 69.2718C19.502 69.2884 19.1306 69.6548 18.3928 70.3727C17.655 71.0907 17.2786 71.4488 17.267 71.4488C17.2537 71.4488 17.398 71.6213 17.6981 71.9661C17.9965 72.3094 18.348 72.7089 18.7493 73.1616C19.1522 73.6142 19.3578 73.8381 19.3727 73.8314C19.3843 73.8248 19.3976 73.8149 19.4108 73.8033C19.4241 73.79 19.6662 73.5562 20.1387 73.1036C20.6113 72.6492 20.9628 72.311 21.1982 72.0855C21.4303 71.8617 21.5961 71.6959 21.6907 71.5881" fill="white"/>
<path d="M25.2041 74.5477C24.448 73.9525 23.8909 73.4932 23.5344 73.1666C23.1763 72.8399 22.9823 72.6924 22.9491 72.7272C22.916 72.7603 22.4965 73.1682 21.6923 73.9492L20.4869 75.1214L21.0357 75.5707C21.4038 75.8708 21.8051 76.1975 22.2395 76.5506C22.6739 76.9038 22.8977 77.0763 22.911 77.0696C22.9226 77.063 22.9359 77.053 22.9491 77.0414C22.9624 77.0298 23.2045 76.796 23.677 76.3434C24.1495 75.8907 24.5011 75.5525 24.7365 75.327C24.9686 75.1015 25.1742 74.8992 25.3483 74.7202" fill="white"/>
<path d="M16.7231 77.8108C16.1809 77.2686 15.7714 76.8657 15.4928 76.6054C15.216 76.3434 15.0137 76.1477 14.891 76.0168L14.7036 75.8194L14.4217 76.1593C14.2344 76.3865 14.0338 76.6203 13.8232 76.8624L13.5082 77.2255L14.2344 77.9484C14.7202 78.4309 15.3154 79.0327 16.0251 79.7573L17.0862 80.8433L18.5785 79.7523" fill="white"/>
<path d="M50.2025 37.9545C50.1893 38.0076 50.2407 38.1236 50.2639 38.2513C50.2871 38.379 50.2788 38.5199 50.2506 38.6625C50.2224 38.8051 50.171 38.9526 50.118 39.0836C50.0632 39.2146 50.0052 39.329 49.977 39.3904C49.9488 39.4517 49.9488 39.4583 50.2805 39.3357C50.6137 39.2146 51.2753 38.9659 51.6135 38.8366C51.9518 38.7056 51.965 38.6923 51.8606 38.6409C51.7545 38.5895 51.5323 38.5017 51.34 38.4237C51.1493 38.3475 50.9901 38.2844 50.8326 38.2015C50.6767 38.1186 50.5242 38.0175 50.4098 37.9628C50.2921 37.9081 50.2141 37.8998 50.2025 37.9545ZM43.0513 36.1439C43.1226 36.2368 43.3398 36.4241 43.4924 36.5767C43.6449 36.7275 43.7345 36.8419 43.8339 36.9713C43.9318 37.0989 44.0412 37.2382 44.1208 37.3576C44.2004 37.4753 44.2518 37.5698 44.28 37.6312C44.3081 37.6909 44.3148 37.7174 44.2932 37.7489C44.27 37.7804 44.2203 37.8185 44.1307 37.8666C44.0412 37.9147 43.9135 37.9727 43.7825 38.049C43.6516 38.1269 43.5173 38.2214 43.4062 38.311C43.2934 38.4005 43.2039 38.4834 43.1525 38.5729C43.1011 38.6625 43.0895 38.757 43.0862 38.8532C43.0828 38.9493 43.0895 39.0455 43.111 39.0985C43.1326 39.1533 43.1724 39.1665 43.2735 39.1715C43.3763 39.1781 43.5421 39.1781 43.7726 39.1781C44.0047 39.1781 44.3065 39.1781 44.6083 39.1665C44.9117 39.1533 45.2168 39.1284 45.4406 39.0985C45.6644 39.0704 45.8037 39.0389 45.9579 38.9875C46.1121 38.9361 46.2763 38.8664 46.4205 38.8001C46.5648 38.7321 46.6858 38.6691 46.7836 38.5862C46.8831 38.5033 46.9594 38.4022 47.0058 38.2679C47.0539 38.1352 47.0738 37.9694 47.0439 37.7986C47.0157 37.6295 46.9395 37.4571 46.8367 37.3112C46.7339 37.1636 46.6062 37.0426 46.4437 36.9265C46.2812 36.8088 46.0839 36.6944 45.875 36.5932C45.6677 36.4954 45.4522 36.4108 45.2416 36.3462C45.0311 36.2782 44.8271 36.2285 44.6083 36.192C44.3894 36.1555 44.1589 36.1373 43.955 36.1207C43.751 36.1025 43.5753 36.0875 43.4426 36.0792C43.31 36.0709 43.2188 36.066 43.1342 36.061C43.058 36.056 42.9817 36.0511 43.0513 36.1439ZM27.5204 37.5698C28.4406 37.3791 29.3575 37.1868 30.1699 37.0525C30.9824 36.9166 31.6887 36.837 32.4017 36.7889C33.1146 36.7408 33.8375 36.7209 34.2222 36.711C34.6085 36.6993 34.6616 36.6944 35.0827 36.6861C35.5039 36.6778 36.2948 36.6645 36.9779 36.6911C37.661 36.7159 38.2347 36.7789 38.7951 36.8436C39.3572 36.9066 39.906 36.9713 40.4548 37.0343C40.493 36.8055 40.5311 36.575 40.493 36.3213C40.4548 36.066 40.3388 35.7858 40.1796 35.5371C40.0204 35.2883 39.8165 35.0711 39.586 34.8606C39.3572 34.65 39.1019 34.4461 38.8399 34.262C38.5779 34.0763 38.311 33.9105 38.049 33.7895C37.787 33.6684 37.5333 33.5922 37.2714 33.4827C37.0094 33.375 36.7425 33.2357 36.4871 33.1196C36.2318 33.0035 35.9897 32.9157 35.7741 32.8377C35.5553 32.7615 35.3663 32.6985 35.2369 32.6587C35.1093 32.6205 35.0463 32.6073 35.0977 32.5443C35.1491 32.4796 35.3149 32.3652 35.6266 32.2823C35.9383 32.1994 36.3976 32.148 36.9149 32.1613C37.4322 32.1745 38.0059 32.2491 38.6442 32.3851C39.2826 32.5177 39.9839 32.7101 40.6007 32.8891C41.2209 33.0682 41.7564 33.234 42.2091 33.3998C42.6617 33.5656 43.0314 33.7314 43.4393 33.879C43.8472 34.0266 44.2932 34.1526 44.7094 34.2487C45.1223 34.3449 45.5069 34.4079 45.8253 34.4262C46.1436 34.4444 46.399 34.4195 46.6029 34.3632C46.8068 34.3051 46.961 34.2156 47.2213 34.1708C47.4833 34.126 47.8531 34.126 48.2112 34.1526C48.5677 34.1774 48.9126 34.2288 49.2558 34.3001C49.6007 34.3698 49.9439 34.4593 50.2904 34.5472C50.6336 34.6367 50.9785 34.7263 51.3101 34.7959C51.6417 34.8655 51.9601 34.9169 52.2917 34.9683C52.6249 35.0197 52.9682 35.0711 53.3263 35.1026C53.6844 35.1341 54.0525 35.1474 54.4355 35.154C54.8185 35.1607 55.2132 35.1607 55.558 35.154C55.9013 35.1474 56.1964 35.1341 56.4816 35.1656C56.7701 35.1988 57.0503 35.2734 57.3239 35.4011C57.5974 35.5288 57.866 35.7078 58.0882 35.867C58.3121 36.0262 58.4911 36.1671 58.6685 36.3578C58.8476 36.5501 59.0267 36.7922 59.2041 36.9961C59.3832 37.2001 59.5622 37.3659 59.6766 37.4936C59.791 37.6212 59.8424 37.7108 59.8739 37.7489C59.9054 37.7854 59.9187 37.7738 60.0663 37.7555C60.2155 37.7373 60.5007 37.7141 60.7693 37.7191C61.0379 37.7273 61.2883 37.7622 61.5851 37.8434C61.8835 37.9263 62.2267 38.0523 62.5202 38.18C62.8137 38.3077 63.0558 38.4353 63.2464 38.5365C63.4388 38.6393 63.5797 38.7155 63.7952 38.747C64.0125 38.7785 64.3043 38.7669 64.5662 38.747C64.8282 38.7288 65.0587 38.7039 65.2693 38.6592C65.4798 38.6144 65.6705 38.5514 65.8628 38.5448C66.0535 38.5381 66.2458 38.5879 66.4432 38.6476C66.6405 38.7056 66.8444 38.7686 67.0235 38.8515C67.2009 38.9344 67.3551 39.0372 67.5458 39.145C67.7381 39.2527 67.9669 39.3672 68.1592 39.47C68.3516 39.5728 68.5025 39.6623 68.6318 39.7187C68.7595 39.775 68.8606 39.8016 69.0397 39.8132C69.2187 39.8264 69.4741 39.8264 69.7609 39.8132C70.0478 39.8016 70.3661 39.775 70.6214 39.7634C70.8768 39.7502 71.0691 39.7502 71.2598 39.7817C71.4521 39.8132 71.6428 39.8778 71.6926 40.0304C71.744 40.1829 71.6544 40.425 71.5334 40.6488C71.4123 40.871 71.2598 41.0766 71.0758 41.2805C70.8901 41.4845 70.6728 41.6884 70.444 41.9007C70.2152 42.1112 69.9715 42.3284 69.7543 42.5689C69.5371 42.8126 69.3464 43.0795 69.1922 43.2967C69.038 43.5139 68.9236 43.6797 68.8291 43.8389C68.7329 43.9981 68.6567 44.1506 68.5472 44.3115C68.4395 44.4706 68.3002 44.6364 68.1775 44.7906C68.0564 44.9448 67.9553 45.0841 67.8591 45.2383C67.763 45.3909 67.6751 45.5567 67.5972 45.6976C67.5209 45.8385 67.4579 45.9529 67.38 46.0557C67.3037 46.1585 67.2141 46.2464 67.1694 46.2912C67.1246 46.336 67.1246 46.336 67.1114 46.1635C67.0997 45.9911 67.0749 45.6462 67.0086 45.3594C66.9455 45.0725 66.8427 44.842 66.7283 44.6447C66.6139 44.4474 66.4863 44.2816 66.3138 44.1656C66.1414 44.0512 65.9258 43.9882 65.7202 43.9301C65.5163 43.8721 65.3256 43.8223 65.0504 43.7825C64.7768 43.7444 64.4203 43.7195 64.0954 43.7245C63.7687 43.7311 63.4769 43.7693 63.1635 43.8024C62.8518 43.8339 62.5202 43.8605 62.1803 43.9301C61.8437 43.9998 61.4988 44.1142 61.2236 44.2302C60.95 44.3446 60.7444 44.459 60.5421 44.658C60.3382 44.8553 60.1343 45.1372 59.9867 45.3527C59.8391 45.5699 59.7513 45.7225 59.7065 45.8684C59.6617 46.0159 59.6617 46.1552 59.675 46.3094C59.6882 46.462 59.7131 46.6278 59.7463 46.782C59.7778 46.9345 59.8159 47.0754 59.8541 47.165C59.8922 47.2529 59.9303 47.2926 59.9618 47.3242C59.9933 47.3557 60.0199 47.3805 60.1525 47.3756C60.2868 47.3689 60.5289 47.3308 60.7212 47.2794C60.9135 47.228 61.0528 47.165 61.1755 47.1384C61.2966 47.1136 61.3977 47.1252 61.5701 47.1948C61.7426 47.2661 61.9847 47.3921 62.1687 47.5397C62.3544 47.6873 62.4821 47.8531 62.623 48.0239C62.7623 48.1963 62.9165 48.3754 63.0806 48.5461C63.2481 48.7186 63.4255 48.8844 63.6245 49.0369C63.8218 49.1911 64.0373 49.3304 64.218 49.4581C64.3971 49.5857 64.5364 49.7001 64.742 49.7764C64.9443 49.8527 65.2145 49.8908 65.4367 49.8974C65.6606 49.9041 65.838 49.8792 66.0237 49.8212C66.2077 49.7648 66.4 49.6736 66.5592 49.599C66.7184 49.5211 66.8461 49.4581 66.9721 49.4C67.0997 49.342 67.2258 49.2889 67.2904 49.269C67.3534 49.2491 67.3551 49.2608 67.3169 49.3569C67.2788 49.4531 67.2025 49.6338 67.1628 49.7764C67.1246 49.919 67.1246 50.0201 67.1246 50.1478V50.5756C67.1246 50.7232 67.1246 50.8624 67.0997 51.0083C67.0749 51.1559 67.0235 51.3085 66.9522 51.4875C66.8825 51.6666 66.793 51.8705 66.7051 51.9849C66.6156 52.101 66.5261 52.1259 66.4166 52.1259C66.3089 52.1259 66.1812 52.101 66.0535 52.0496C65.9258 51.9982 65.7998 51.9219 65.6324 51.8838C65.4666 51.8457 65.2626 51.8457 65.0338 51.8904C64.805 51.9352 64.5497 52.0231 64.2993 52.101C64.0506 52.1773 63.8085 52.2403 63.5465 52.2336C63.2846 52.227 63.0044 52.1507 62.7308 52.0811C62.4572 52.0115 62.1886 51.9485 61.9399 51.8772C61.6912 51.8075 61.4607 51.7313 61.1871 51.6799C60.9135 51.6285 60.5935 51.6019 60.2934 51.5654C59.9933 51.5273 59.7131 51.4759 59.4329 51.4577C59.151 51.4378 58.8708 51.451 58.5972 51.4958C58.3237 51.5406 58.0551 51.6168 57.7616 51.6998C57.4681 51.7827 57.1498 51.8722 56.8696 51.9733C56.5877 52.0761 56.3456 52.1905 56.0853 52.3116C55.8233 52.4326 55.5431 52.5603 55.2944 52.6879C55.0457 52.8156 54.8285 52.9416 54.5931 53.0892C54.3559 53.2368 54.1006 53.4009 53.8536 53.5684C53.6048 53.7342 53.3628 53.9 53.0627 54.1305C52.7626 54.3593 52.4061 54.6544 51.9468 55.1004C51.4875 55.5464 50.9271 56.1466 50.3335 56.7402C49.7399 57.3338 49.1148 57.9191 48.4384 58.4945C47.7619 59.0681 47.034 59.6302 46.4354 60.0315C45.8369 60.4327 45.3643 60.6764 44.8155 60.9434C44.2667 61.212 43.6416 61.5038 43.1061 61.7144C42.5689 61.925 42.1228 62.0526 41.7531 62.1488C41.3833 62.2433 41.0899 62.308 40.944 62.3395C40.7964 62.371 40.7964 62.371 40.9257 62.2184C41.0534 62.0642 41.3087 61.7592 41.5193 61.3894C41.7299 61.0197 41.8957 60.5853 42.0035 60.1459C42.1112 59.7065 42.1626 59.2588 42.1941 58.8758C42.2273 58.4928 42.2389 58.1744 42.214 57.881C42.1875 57.5875 42.1245 57.3205 42.0665 57.0834C42.0084 56.848 41.9587 56.6441 41.9322 56.5413C41.9073 56.4385 41.9073 56.4385 42.1112 56.4086C42.3152 56.3755 42.7231 56.3125 43.2155 56.2362C43.7063 56.1599 44.28 56.0704 44.8536 55.9676C45.4273 55.8648 46.0027 55.7504 46.5565 55.5846C47.1119 55.4188 47.6475 55.2016 48.0868 54.9661C48.5279 54.7307 48.8711 54.4753 49.2226 54.162C49.5725 53.8502 49.9306 53.4805 50.2224 53.1224C50.5159 52.7642 50.7464 52.421 50.8541 52.2486C50.9619 52.0761 50.9503 52.0761 50.7513 52.1093C50.554 52.1408 50.1727 52.2055 49.7184 52.2419C49.2641 52.2801 48.7434 52.2933 48.1482 52.3049C47.5546 52.3182 46.8931 52.3315 46.3243 52.3431C45.7556 52.3563 45.2864 52.3696 44.7807 52.4011C44.2766 52.4326 43.7411 52.484 43.2503 52.5984C42.7595 52.7128 42.3135 52.8919 41.9371 53.0643C41.5608 53.2368 41.254 53.4009 41.0053 53.5369C40.7566 53.6695 40.5659 53.7723 40.4698 53.8237C40.3736 53.8751 40.3736 53.8751 40.226 53.6911C40.0801 53.5054 39.7866 53.1356 39.4733 52.7775C39.1599 52.421 38.8283 52.0761 38.5497 51.8142C38.2695 51.5522 38.0391 51.3748 37.8152 51.209C37.593 51.0432 37.3758 50.8906 37.1951 50.7812C37.0177 50.6734 36.8768 50.6088 36.8187 50.5706C36.7607 50.5325 36.7872 50.5192 36.9083 50.4429C37.0293 50.3667 37.2448 50.2257 37.6096 50.0599C37.9727 49.8941 38.4834 49.7035 39.0322 49.5559C39.581 49.4083 40.168 49.3072 40.8378 49.2226C41.5077 49.1397 42.2605 49.0767 43.0248 49.0137C43.7908 48.949 44.5685 48.886 45.2831 48.8214C45.996 48.7584 46.6477 48.6937 47.2346 48.5926C47.8216 48.4898 48.3438 48.3488 48.8048 48.2029C49.2624 48.057 49.6587 47.9045 50.0168 47.7304C50.3733 47.5579 50.6917 47.3673 50.9669 47.1567C51.2405 46.9461 51.4709 46.7156 51.6583 46.4736C51.8457 46.2315 51.9932 45.9762 52.0745 45.8385C52.1557 45.6993 52.169 45.676 51.9402 45.7357C51.7114 45.7954 51.2388 45.938 50.7828 46.0375C50.3252 46.1386 49.8825 46.1967 49.4332 46.2464C48.9822 46.2945 48.5246 46.3343 47.9293 46.3459C47.3358 46.3592 46.6095 46.3459 45.9214 46.3393C45.2317 46.3326 44.5801 46.3326 43.892 46.321C43.2039 46.3078 42.4777 46.2829 41.8327 46.2829C41.1894 46.2829 40.6273 46.3094 40.0967 46.3608C39.5678 46.4122 39.0704 46.4885 38.5713 46.6029C38.0739 46.7173 37.5765 46.8715 37.1619 47.024C36.7474 47.1782 36.4158 47.3308 36.1356 47.4833C35.8537 47.6359 35.6249 47.7884 35.4525 47.9492C35.2801 48.1084 35.1656 48.2742 35.1076 48.3571C35.0512 48.44 35.0512 48.44 34.8523 48.2361C34.655 48.0321 34.2587 47.6226 33.8574 47.2611C33.4545 46.898 33.0467 46.578 32.5874 46.2464C32.1281 45.9148 31.6174 45.5716 31.183 45.2964C30.7503 45.0211 30.3938 44.8172 30.0804 44.6514C29.7687 44.4856 29.5001 44.3579 29.3475 44.2816C29.1933 44.2037 29.1552 44.1788 29.1303 44.154C29.1038 44.1291 29.0922 44.1026 29.2829 44.0064C29.4735 43.9119 29.8698 43.7444 30.3788 43.5604C30.8895 43.3747 31.5146 43.1724 32.1331 42.9917C32.7515 42.8126 33.3633 42.66 33.8939 42.5573C34.4228 42.4545 34.8705 42.4047 35.4459 42.3732C36.0195 42.34 36.7209 42.3284 37.4106 42.3284C38.0987 42.3284 38.7752 42.34 39.4517 42.3599C40.1282 42.3798 40.803 42.4047 41.4414 42.4379C42.0797 42.4694 42.6799 42.5075 43.2155 42.4959C43.751 42.4826 44.2236 42.418 44.6878 42.3682C45.1538 42.3168 45.613 42.2787 46.1105 42.151C46.6095 42.0234 47.1451 41.8078 47.5148 41.6022C47.8846 41.3983 48.0869 41.2076 48.2609 40.997C48.4334 40.7864 48.5743 40.556 48.6556 40.4416C48.7385 40.3272 48.7633 40.3272 48.4765 40.3968C48.1896 40.4681 47.5894 40.6074 46.9461 40.7035C46.3028 40.7997 45.613 40.8511 44.9763 40.8511C44.338 40.8511 43.751 40.7997 43.1774 40.7102C42.6037 40.6223 42.0416 40.493 41.4414 40.367C40.8428 40.2393 40.2045 40.1116 39.5794 40.0354C38.956 39.9574 38.3425 39.9325 37.6925 39.901C37.0426 39.8695 36.3528 39.8314 35.7526 39.8181C35.154 39.8065 34.6417 39.8181 34.1642 39.8447C33.685 39.8695 33.2406 39.9077 32.8195 39.9591C32.3984 40.0105 32.0037 40.0735 31.576 40.163C31.1482 40.2526 30.6889 40.367 30.2429 40.488C29.7952 40.609 29.3625 40.7367 28.9164 40.9091C28.4688 41.0816 28.0111 41.2971 27.6016 41.4828C27.1937 41.6669 26.8372 41.8211 26.6515 41.8841C26.4675 41.9487 26.4542 41.9222 26.2569 41.7813C26.0596 41.642 25.6766 41.3867 25.2439 41.1313C24.8094 40.876 24.3236 40.6223 23.8843 40.4051C23.4449 40.1879 23.0486 40.0088 22.7302 39.8878C22.4119 39.7667 22.1698 39.7021 22.0471 39.6706C21.9261 39.6374 21.9261 39.6374 22.1367 39.5164C22.3472 39.3953 22.7684 39.1533 23.2592 38.9228C23.7499 38.6923 24.312 38.4751 24.841 38.2977C25.3699 38.1186 25.8673 37.9794 26.3083 37.8633C26.7477 37.7489 27.1307 37.6594 27.3214 37.6146L27.5204 37.5698Z" fill="black"/>
<path d="M40.8495 62.5998C40.7682 62.5998 40.682 62.5749 40.6223 62.4771C40.5228 62.3129 40.6322 62.182 40.7367 62.0559C40.8693 61.8951 41.1081 61.6083 41.3038 61.2634C41.4978 60.9218 41.6569 60.514 41.763 60.0829C41.8758 59.6252 41.9222 59.1626 41.9471 58.8526C41.9819 58.4364 41.9885 58.1512 41.967 57.8976C41.9438 57.6356 41.8891 57.3985 41.826 57.1382C41.7697 56.9044 41.7183 56.7004 41.6917 56.5993C41.6752 56.5313 41.6486 56.4235 41.7216 56.3158C41.7979 56.2014 41.9089 56.1848 42.0748 56.1583C42.2157 56.135 42.4594 56.0969 42.7612 56.0505L43.1774 55.9858C43.6996 55.9046 44.2568 55.8184 44.8105 55.7189C45.3212 55.6277 45.9198 55.5133 46.4868 55.3425C47.0224 55.1833 47.5496 54.9694 47.9708 54.7423C48.3621 54.5334 48.6887 54.3029 49.0585 53.9713C49.405 53.6629 49.7499 53.3047 50.0317 52.9599C50.2009 52.7543 50.3451 52.557 50.4529 52.4028C50.2556 52.4309 50.0119 52.4625 49.7416 52.4857C49.2923 52.5238 48.7799 52.5371 48.1565 52.5503C47.7967 52.5586 47.412 52.5669 47.0373 52.5735L46.3326 52.5885C45.7473 52.6017 45.2864 52.615 44.7989 52.6448C44.3712 52.673 43.8157 52.7195 43.3083 52.8372C42.9137 52.9284 42.5108 53.0726 42.0433 53.2865C41.6718 53.4556 41.3701 53.6198 41.1263 53.7508L40.5891 54.0376C40.3106 54.1868 40.1829 54.026 40.0353 53.8403C39.7717 53.5037 39.5147 53.192 39.2909 52.9367C38.9825 52.5851 38.6608 52.2502 38.3839 51.9916C38.1037 51.7296 37.8782 51.5572 37.671 51.403C37.4173 51.2156 37.2216 51.0796 37.0724 50.9884C36.9762 50.9304 36.8917 50.8856 36.827 50.8508C36.764 50.8177 36.7159 50.7911 36.6861 50.7712C36.57 50.6933 36.5468 50.5955 36.5468 50.5275C36.5485 50.3733 36.6612 50.302 36.7624 50.239L36.8071 50.2108C36.9381 50.1279 37.157 49.9903 37.5135 49.8278C37.9396 49.6338 38.4718 49.4448 38.9742 49.3105C39.4998 49.1696 40.0834 49.0618 40.813 48.9706C41.5077 48.886 42.3052 48.8181 43.0099 48.76L43.7212 48.7003C44.2501 48.6556 44.7724 48.6125 45.2665 48.5693C45.9165 48.5113 46.5996 48.4466 47.1965 48.3422C47.7022 48.2543 48.2046 48.13 48.7335 47.9608C49.1878 47.8166 49.5725 47.6657 49.9124 47.5016C50.2589 47.3341 50.5656 47.1501 50.8193 46.9544C51.0664 46.7654 51.2836 46.5498 51.466 46.316C51.529 46.2348 51.587 46.1519 51.6401 46.0723C51.4079 46.137 51.1211 46.2133 50.8392 46.2746C50.3451 46.384 49.8659 46.4437 49.463 46.4868C49.0502 46.5316 48.5793 46.5747 47.9376 46.588C47.4701 46.5996 46.913 46.5929 46.3757 46.5863L45.9231 46.5813C45.691 46.5797 45.4638 46.578 45.2383 46.5764C44.7906 46.573 44.3496 46.5714 43.892 46.5631C43.6549 46.5581 43.4111 46.5532 43.1691 46.5465C42.7197 46.5349 42.2555 46.525 41.8377 46.525C41.2175 46.525 40.6571 46.5498 40.1265 46.6012C39.586 46.6526 39.0985 46.7306 38.6343 46.8383C38.1833 46.9428 37.6942 47.0887 37.2565 47.2495C36.8817 47.3888 36.5568 47.5331 36.2633 47.6939C35.9847 47.8448 35.7775 47.9857 35.6316 48.1233C35.4807 48.2626 35.3779 48.4085 35.3232 48.4864C35.2883 48.5362 35.2204 48.6373 35.0844 48.6489C34.9352 48.6605 34.8556 48.5793 34.6832 48.4019C34.5439 48.256 34.1194 47.8166 33.7016 47.4369C33.3451 47.1136 32.9588 46.8052 32.4531 46.4387C32.0054 46.1154 31.498 45.7739 31.062 45.4986C30.6823 45.2566 30.3374 45.0559 29.9759 44.8619C29.7422 44.7376 29.5332 44.6348 29.379 44.5602L29.2481 44.4955C29.0822 44.4109 29.0176 44.3745 28.9612 44.3164C28.875 44.2335 28.8733 44.1324 28.8816 44.0793C28.9065 43.9135 29.0673 43.8339 29.1834 43.7743C29.3658 43.6831 29.7571 43.5156 30.3059 43.3166C30.8332 43.126 31.4616 42.922 32.075 42.7429C32.7316 42.5539 33.3484 42.4014 33.8574 42.3036C34.383 42.2024 34.8423 42.1477 35.4425 42.1145C35.9648 42.0847 36.6479 42.0698 37.4206 42.0698C38.0424 42.0698 38.7122 42.0797 39.4683 42.1013C40.2244 42.1245 40.8776 42.1494 41.4629 42.1792L41.7697 42.1941C42.2886 42.2207 42.7778 42.2455 43.2171 42.2356C43.6416 42.2256 44.0296 42.1809 44.4043 42.1394L44.8371 42.0913C45.2483 42.0482 45.6362 42.0068 46.0557 41.8973C46.5084 41.7813 47.024 41.5807 47.4021 41.3717C47.7635 41.1711 47.9409 40.992 48.0769 40.8262C48.1067 40.7898 48.1349 40.7516 48.1631 40.7151C47.8448 40.7864 47.4269 40.871 46.9909 40.9357C46.3343 41.0335 45.6396 41.0849 44.9846 41.0849C44.3662 41.0849 43.766 41.0385 43.1475 40.9406C42.6717 40.8677 42.2107 40.7682 41.7232 40.6637L41.3999 40.5941C40.8428 40.4747 40.1879 40.3421 39.5595 40.2658C39.0074 40.1978 38.4635 40.1713 37.8865 40.1431L37.4107 40.1199C36.8486 40.0917 36.2683 40.0619 35.7559 40.0503C35.2137 40.0387 34.7163 40.047 34.1874 40.0768C33.7265 40.1 33.2788 40.1381 32.8593 40.1895C32.4299 40.2409 32.0402 40.3056 31.6373 40.3902C31.2493 40.4714 30.8066 40.5792 30.3175 40.7118C29.9361 40.8146 29.4818 40.9456 29.0159 41.1247C28.6512 41.2656 28.2831 41.4331 27.9282 41.5956L27.716 41.6934C27.2451 41.9056 26.9185 42.0432 26.7427 42.1029C26.4791 42.1958 26.368 42.1444 26.1641 41.9968L26.1226 41.967C25.9071 41.8144 25.5307 41.5657 25.1278 41.3286C24.6403 41.0434 24.128 40.7798 23.7848 40.6107C23.3388 40.3902 22.9574 40.2194 22.6523 40.1033C22.4285 40.0188 22.2129 39.9508 21.9974 39.8961C21.9161 39.8745 21.7537 39.8297 21.7304 39.6523C21.7072 39.4683 21.8399 39.392 22.0256 39.2859L22.0405 39.2776C22.2627 39.1499 22.6772 38.9112 23.1663 38.684C23.7549 38.4071 24.3651 38.1866 24.7746 38.049C25.2356 37.8931 25.7214 37.7505 26.2586 37.6096C26.7013 37.4936 27.0909 37.4024 27.2783 37.3592L27.5933 37.288C28.4588 37.1089 29.3525 36.9232 30.1351 36.7939C30.9144 36.6645 31.6307 36.5783 32.3917 36.5269C33.0666 36.4805 33.743 36.4622 34.1459 36.4506L34.5472 36.4374C34.6964 36.4324 34.8175 36.4274 35.0844 36.4224C35.8637 36.4059 36.4871 36.4075 36.9945 36.4274C37.6676 36.4523 38.2248 36.512 38.8316 36.5816C39.2892 36.633 39.7386 36.6844 40.1862 36.7375L40.2526 36.7458C40.2691 36.6115 40.2758 36.4805 40.2542 36.3445C40.2227 36.1323 40.1216 35.8819 39.9773 35.6564C39.848 35.4541 39.6722 35.2552 39.4268 35.0297C39.2113 34.8307 38.9609 34.6301 38.7056 34.451C38.432 34.257 38.1783 34.1045 37.9528 34.0017C37.8069 33.9354 37.6643 33.8823 37.5135 33.8259C37.404 33.7861 37.2946 33.7447 37.1852 33.6999C37.0227 33.6319 36.8585 33.554 36.6993 33.4777C36.5965 33.428 36.4937 33.3799 36.3926 33.3335C36.1456 33.2207 35.9134 33.1362 35.6979 33.0599C35.4757 32.982 35.2933 32.9223 35.1723 32.8858L35.1441 32.8775C35.0347 32.8444 34.897 32.8029 34.8506 32.652C34.834 32.599 34.8191 32.4912 34.9103 32.3768C35.0197 32.2392 35.2602 32.1115 35.5702 32.0303C35.9267 31.9358 36.4225 31.8893 36.9282 31.9009C37.4554 31.9142 38.0357 31.9888 38.7023 32.1297C39.402 32.2757 40.1647 32.4895 40.677 32.6371C41.3833 32.8411 41.8841 33.0002 42.3019 33.1528C42.5274 33.2357 42.7313 33.3169 42.9303 33.3982C43.1343 33.4811 43.3282 33.5573 43.5322 33.6319C43.9086 33.7679 44.338 33.8939 44.7741 33.9934C45.1936 34.0912 45.555 34.1493 45.8485 34.1658C46.1237 34.1824 46.3575 34.1642 46.5449 34.1111C46.6145 34.0912 46.6775 34.068 46.7422 34.0431C46.8649 33.9967 47.0025 33.9453 47.1898 33.9138C47.5414 33.8541 47.9973 33.874 48.2394 33.8923C48.5892 33.9171 48.9424 33.9669 49.3171 34.0431C49.6371 34.1078 49.9605 34.1907 50.2738 34.2703L50.3634 34.2935C50.7016 34.3814 51.0481 34.4726 51.3731 34.5406C51.7031 34.6102 52.0198 34.6599 52.3414 34.7097C52.6631 34.7594 53.008 34.8108 53.3595 34.8423C53.6712 34.8689 54.0177 34.8854 54.4505 34.8921C54.8285 34.8987 55.2248 34.8987 55.5647 34.8921L55.7255 34.8887C56.0024 34.8821 56.2644 34.8771 56.5214 34.9053C56.8414 34.9418 57.1514 35.028 57.4399 35.1623C57.7533 35.3082 58.0484 35.5122 58.2441 35.6515C58.4746 35.8156 58.6669 35.9665 58.8609 36.1754C58.9687 36.2915 59.0764 36.4224 59.1792 36.5501C59.2538 36.643 59.3285 36.7342 59.4014 36.8187C59.5009 36.9315 59.6004 37.0343 59.6899 37.1238C59.7595 37.1951 59.8209 37.2581 59.8723 37.3145C59.9386 37.3891 59.9867 37.4521 60.0215 37.5002L60.0497 37.4969C60.2205 37.4753 60.5173 37.4538 60.7875 37.4587C61.086 37.467 61.3562 37.5085 61.663 37.5914C61.9548 37.6726 62.308 37.7986 62.633 37.9412C62.938 38.0739 63.1917 38.2082 63.3758 38.306L63.3907 38.3143C63.5681 38.4088 63.6759 38.4668 63.8433 38.49C64.0522 38.5215 64.3524 38.5033 64.5596 38.4884C64.8481 38.4685 65.0537 38.442 65.2295 38.4038C65.2892 38.3906 65.3455 38.3773 65.4019 38.364C65.5511 38.3276 65.7037 38.2894 65.8662 38.2844C66.095 38.2745 66.3072 38.3325 66.5244 38.3972C66.7283 38.4569 66.9455 38.5232 67.1379 38.6127C67.2722 38.6757 67.3866 38.7437 67.5093 38.8167C67.564 38.8482 67.6204 38.883 67.6801 38.9162C67.8028 38.9858 67.942 39.0571 68.0763 39.1267C68.1493 39.1649 68.2206 39.2013 68.2869 39.2378C68.3499 39.271 68.408 39.3041 68.4627 39.334C68.5721 39.3937 68.6666 39.4451 68.7445 39.4799C68.8357 39.5213 68.907 39.5429 69.0679 39.5529C69.2386 39.5661 69.484 39.5661 69.7593 39.5529C69.9168 39.5462 70.0826 39.5346 70.2418 39.5247C70.3744 39.5164 70.5037 39.5081 70.6198 39.5031C70.8768 39.4898 71.0923 39.4882 71.3112 39.5247C71.4372 39.5446 71.8285 39.6092 71.9379 39.9408C72.0059 40.1431 71.9462 40.4184 71.7605 40.7566C71.6395 40.9804 71.4787 41.2043 71.2681 41.4347C71.0675 41.6569 70.8287 41.8791 70.6198 42.0698L70.5402 42.1427C70.3396 42.3268 70.1307 42.5175 69.9466 42.7231C69.7443 42.9502 69.5603 43.2055 69.4028 43.4277C69.2453 43.6499 69.1375 43.8074 69.0513 43.9533C69.0165 44.0097 68.9866 44.0644 68.9551 44.1175C68.8971 44.2203 68.8357 44.3264 68.7611 44.4375C68.6699 44.5718 68.5621 44.7044 68.4577 44.8338L68.3798 44.9316C68.2554 45.0891 68.1626 45.2201 68.0763 45.356C67.9984 45.4804 67.9238 45.6164 67.8575 45.7374L67.8227 45.8021C67.7398 45.9563 67.6734 46.0756 67.5856 46.19C67.5027 46.3011 67.4081 46.3956 67.3567 46.447C67.2357 46.5681 67.1263 46.5598 67.055 46.5333C66.8941 46.4736 66.8825 46.331 66.8709 46.1668C66.8593 46.0043 66.8345 45.6678 66.7748 45.4008C66.7234 45.172 66.6438 44.9664 66.5211 44.7558C66.4083 44.5618 66.3039 44.4408 66.1845 44.3595C66.0386 44.2617 65.8297 44.2037 65.6622 44.1556C65.4583 44.0976 65.2809 44.0511 65.0255 44.0147C64.742 43.9749 64.4004 43.955 64.1086 43.96C63.8566 43.9649 63.6228 43.9898 63.3774 44.0163L63.0657 44.0478C62.7971 44.0744 62.5185 44.1009 62.24 44.1589C61.9465 44.2203 61.6232 44.3214 61.3297 44.4441C61.0926 44.5436 60.9102 44.6414 60.7262 44.8205C60.577 44.9647 60.4012 45.1853 60.2022 45.4771C60.0563 45.691 59.9867 45.817 59.9535 45.9264C59.9204 46.0342 59.9204 46.1436 59.932 46.2746C59.9452 46.4155 59.9685 46.573 59.9983 46.7156C60.0281 46.8582 60.063 46.9826 60.0912 47.0506C60.1044 47.0821 60.1144 47.097 60.126 47.1119C60.1326 47.1119 60.1409 47.1119 60.1492 47.1119C60.2586 47.1069 60.4825 47.0721 60.6648 47.024C60.7527 47.0008 60.829 46.9743 60.897 46.9511C60.9766 46.9229 61.0528 46.898 61.1291 46.8814C61.3048 46.845 61.4557 46.8649 61.6696 46.9511C61.7592 46.9876 62.0692 47.1235 62.3295 47.3324C62.5169 47.4817 62.6495 47.6442 62.7789 47.8033L62.8203 47.8547C62.9795 48.0504 63.1254 48.2178 63.2647 48.3621C63.4421 48.5445 63.6112 48.697 63.7803 48.828C63.9113 48.9291 64.0489 49.0253 64.1849 49.1182C64.2479 49.1613 64.3092 49.2027 64.3656 49.2442L64.4469 49.3022C64.5828 49.4017 64.6906 49.4796 64.8332 49.5327C64.989 49.5907 65.2245 49.6305 65.4483 49.6371C65.639 49.6421 65.7899 49.6222 65.954 49.5725C66.1165 49.5227 66.2923 49.4415 66.4564 49.3619L66.5957 49.2939C66.6952 49.2458 66.7847 49.2027 66.8726 49.1613C66.9638 49.1198 67.1279 49.0485 67.2224 49.0187C67.38 48.9689 67.4745 49.027 67.5275 49.0833C67.6436 49.2094 67.5856 49.3569 67.5541 49.4365L67.5259 49.5078C67.4877 49.6023 67.4363 49.73 67.4098 49.8278C67.38 49.9372 67.38 50.0119 67.38 50.1345V50.5623C67.38 50.7132 67.38 50.8691 67.3518 51.0365C67.3269 51.1874 67.2755 51.3499 67.1909 51.5654C67.0865 51.8307 66.9969 52.0081 66.9091 52.1226C66.7433 52.3364 66.5526 52.3597 66.4233 52.3597C66.279 52.3597 66.1215 52.3265 65.9673 52.2668C65.9225 52.2486 65.8794 52.2287 65.8347 52.2088C65.7517 52.1706 65.6722 52.1342 65.5826 52.1126C65.445 52.0811 65.2742 52.0844 65.0869 52.1209C64.9194 52.1541 64.7337 52.2121 64.5364 52.2751L64.3789 52.3248C64.1368 52.3994 63.8549 52.4757 63.5465 52.4691C63.268 52.4625 62.9861 52.3895 62.7142 52.3182L62.4522 52.2519C62.2533 52.2021 62.0609 52.1541 61.8785 52.1027C61.8188 52.0861 61.7592 52.0678 61.7011 52.0513C61.5187 51.9982 61.3446 51.9485 61.149 51.9103C60.9699 51.8772 60.7594 51.8539 60.5571 51.8307C60.4609 51.8208 60.3647 51.8092 60.2702 51.7976C60.1724 51.7843 60.0762 51.771 59.9817 51.7578C59.7877 51.7296 59.6037 51.7031 59.423 51.6915C59.1593 51.6732 58.8974 51.6848 58.6437 51.7263C58.4016 51.7661 58.1529 51.8357 57.8909 51.9087L57.7516 51.9485C57.483 52.0247 57.2061 52.1043 56.9608 52.1939C56.7038 52.2867 56.4749 52.3928 56.2345 52.5056L56.0886 52.5735C55.8598 52.678 55.6244 52.7874 55.4138 52.8969C55.1982 53.0063 54.9926 53.124 54.7307 53.2882C54.5019 53.4308 54.2482 53.5932 53.9978 53.7624C53.7358 53.9365 53.5037 54.0973 53.2202 54.3145C52.9881 54.4903 52.6249 54.7821 52.1259 55.2646C51.8755 55.5083 51.5903 55.8018 51.2886 56.1118C51.0415 56.3672 50.7812 56.6341 50.5142 56.9011C49.851 57.5626 49.2276 58.1396 48.6042 58.6685C47.9078 59.2588 47.17 59.8259 46.578 60.2221C45.9463 60.6449 45.4572 60.8937 44.9299 61.1507C44.217 61.4988 43.6516 61.7525 43.2022 61.9299C42.6302 62.1538 42.1643 62.2848 41.8211 62.3743C41.4447 62.4705 41.1462 62.5368 41.0003 62.5683C40.9572 62.5882 40.9042 62.5998 40.8495 62.5998ZM42.2173 56.6407C42.2439 56.7452 42.2754 56.8778 42.3119 57.0221C42.3649 57.2393 42.4362 57.5344 42.4644 57.8561C42.4876 58.1396 42.4826 58.4497 42.4445 58.894C42.418 59.219 42.3699 59.7098 42.2472 60.2022C42.1311 60.6764 41.9537 61.1274 41.7365 61.5088C41.6403 61.6763 41.5359 61.8338 41.4364 61.9681C41.516 61.9482 41.6022 61.9266 41.6934 61.9034C42.0217 61.8188 42.471 61.6928 43.0165 61.4789C43.4526 61.3065 44.0064 61.0578 44.7077 60.7162C45.2201 60.4659 45.6926 60.2255 46.2978 59.8209C46.8732 59.4346 47.5961 58.8808 48.2792 58.3005C48.891 57.7815 49.5061 57.2111 50.1594 56.5595C50.4247 56.2942 50.6817 56.0289 50.9271 55.7752C51.2305 55.4619 51.5174 55.1667 51.7744 54.9164C52.2917 54.414 52.6714 54.1122 52.9134 53.9282C53.2086 53.7027 53.449 53.5369 53.7176 53.3578C53.9729 53.187 54.2316 53.0196 54.4637 52.8753C54.739 52.7029 54.9545 52.5802 55.1833 52.4641C55.4022 52.3514 55.6443 52.2403 55.8764 52.1325L56.0206 52.0662C56.2727 51.9485 56.5098 51.8374 56.7867 51.7379C57.0486 51.6417 57.3338 51.5605 57.6107 51.4825L57.7516 51.4428C58.0285 51.3648 58.2889 51.2919 58.5591 51.2488C58.8509 51.2007 59.151 51.1874 59.4528 51.209C59.6518 51.2222 59.8441 51.2504 60.048 51.2803C60.1392 51.2935 60.2321 51.3068 60.3266 51.3201C60.4178 51.3317 60.5123 51.3416 60.6052 51.3516C60.8174 51.3748 61.0362 51.3996 61.2336 51.4361C61.4541 51.4776 61.6464 51.5339 61.8338 51.5887C61.8918 51.6052 61.9482 51.6218 62.0079 51.6384C62.1869 51.6898 62.3743 51.7362 62.5666 51.7843L62.8336 51.8523C63.079 51.9153 63.3326 51.9816 63.5532 51.9866C63.787 51.9932 64.0141 51.9286 64.2263 51.8639L64.3805 51.8158C64.5828 51.7512 64.7901 51.6848 64.9857 51.6467C65.2427 51.5969 65.4848 51.5953 65.6887 51.6417C65.828 51.6732 65.9408 51.7246 66.0386 51.771C66.0751 51.7876 66.1099 51.8042 66.1464 51.8191C66.2409 51.8573 66.337 51.8772 66.4166 51.8772C66.4647 51.8772 66.4747 51.8755 66.5078 51.8324C66.546 51.7826 66.6156 51.6649 66.7201 51.3963C66.793 51.2139 66.8345 51.0813 66.8527 50.9669C66.8743 50.8409 66.8742 50.7182 66.8742 50.5756V50.1478C66.8742 50.0135 66.8742 49.8858 66.9223 49.7117C66.924 49.7068 66.9257 49.7018 66.9257 49.6968C66.8875 49.7151 66.8477 49.735 66.8063 49.7549L66.6653 49.8245C66.483 49.9107 66.289 50.0002 66.095 50.0616C65.8794 50.1279 65.6738 50.1561 65.4284 50.1495C65.2941 50.1462 64.9509 50.1246 64.6525 50.0135C64.4469 49.9356 64.3026 49.8311 64.1501 49.72L64.0721 49.6637C64.0174 49.6255 63.9577 49.5841 63.898 49.5426C63.7571 49.4465 63.6129 49.3453 63.4719 49.2359C63.2846 49.0916 63.0989 48.9225 62.9032 48.7219C62.7523 48.566 62.5981 48.3886 62.4307 48.183L62.3892 48.1316C62.2682 47.9824 62.1621 47.8514 62.0162 47.737C61.8487 47.6027 61.6215 47.4866 61.4756 47.4269C61.3314 47.3689 61.2816 47.3722 61.2269 47.3838C61.1805 47.3938 61.1225 47.4137 61.0545 47.4369C60.9766 47.4634 60.8887 47.4933 60.7875 47.5215C60.5886 47.5745 60.3283 47.6176 60.1674 47.6259C59.9917 47.6342 59.8872 47.5994 59.7894 47.5032C59.7479 47.4601 59.6816 47.3954 59.6269 47.2628C59.5722 47.1351 59.5291 46.9594 59.5042 46.8334C59.4694 46.6709 59.4445 46.4984 59.4296 46.3343C59.4163 46.1784 59.4114 45.9944 59.471 45.7987C59.5274 45.613 59.6368 45.4323 59.7828 45.2151C60.0033 44.8901 60.1956 44.6497 60.3714 44.4806C60.6101 44.2485 60.8472 44.1208 61.1291 44.0031C61.4524 43.8671 61.8072 43.756 62.1322 43.688C62.4373 43.625 62.7291 43.5968 63.011 43.5703L63.3177 43.5388C63.5648 43.5123 63.8185 43.4841 64.0937 43.4791C64.4104 43.4725 64.7818 43.4957 65.0885 43.5388C65.3737 43.5786 65.576 43.6317 65.7915 43.693C65.9822 43.7461 66.2442 43.8207 66.4548 43.96C66.6421 44.0843 66.793 44.2568 66.9472 44.5204C67.0931 44.7741 67.1943 45.0311 67.2556 45.3063C67.2838 45.4307 67.3037 45.5633 67.3203 45.6893C67.3402 45.6545 67.3601 45.618 67.3816 45.5782L67.4164 45.5136C67.4861 45.3859 67.5657 45.2416 67.6502 45.1057C67.7447 44.9548 67.8475 44.8105 67.9851 44.6364L68.0664 44.5353C68.1642 44.4143 68.2654 44.2899 68.3449 44.1722C68.4096 44.0777 68.4627 43.9848 68.5174 43.8853C68.5505 43.8273 68.5837 43.7693 68.6185 43.7112C68.713 43.5521 68.8274 43.3863 68.9916 43.1541C69.1557 42.922 69.3497 42.6518 69.5702 42.4047C69.7709 42.1809 69.9897 41.9819 70.1986 41.7896L70.2766 41.7183C70.4755 41.5342 70.7044 41.3203 70.8917 41.1147C71.0758 40.9108 71.2101 40.7251 71.3145 40.5328C71.4571 40.2741 71.4654 40.1398 71.4571 40.1116C71.4571 40.1116 71.4206 40.0619 71.22 40.0287C71.0443 39.9989 70.8668 40.0005 70.6347 40.0121C70.5203 40.0171 70.3943 40.0254 70.2633 40.0337C70.1008 40.0436 69.93 40.0552 69.7709 40.0619C69.4757 40.0751 69.2088 40.0751 69.0198 40.0619C68.8191 40.0486 68.6865 40.0171 68.529 39.9458C68.4328 39.9027 68.33 39.8463 68.2123 39.7817C68.1592 39.7518 68.1029 39.722 68.0415 39.6888C67.9769 39.654 67.9056 39.6175 67.8343 39.581C67.695 39.5081 67.5507 39.4335 67.4231 39.3605C67.3601 39.324 67.3004 39.2892 67.244 39.2561C67.1279 39.1864 67.0284 39.1267 66.9174 39.0753C66.7549 39.0007 66.5592 38.9394 66.3735 38.8863C66.1961 38.8349 66.0286 38.7868 65.8728 38.7935C65.7617 38.7968 65.639 38.8266 65.5097 38.8581C65.4483 38.8731 65.387 38.888 65.3223 38.9012C65.125 38.9427 64.8979 38.9725 64.5861 38.9941C64.3557 39.0107 64.0174 39.0306 63.7604 38.9924C63.5067 38.956 63.3393 38.8664 63.1453 38.7636L63.1304 38.7553C62.953 38.6608 62.7092 38.5315 62.4224 38.4071C62.119 38.2745 61.789 38.1551 61.5187 38.0822C61.2518 38.0092 61.018 37.9744 60.761 37.9661C60.5189 37.9611 60.252 37.981 60.0961 38.0009L60.0248 38.0109C59.9303 38.0241 59.7993 38.0424 59.6849 37.9097C59.67 37.8915 59.6518 37.8683 59.6319 37.8384C59.6004 37.7937 59.5589 37.734 59.4909 37.6594C59.4445 37.608 59.3865 37.5499 59.3235 37.4853C59.2306 37.3908 59.1245 37.283 59.0167 37.1603C58.9372 37.0707 58.8592 36.9729 58.7813 36.8768C58.6835 36.7557 58.5823 36.6314 58.4862 36.5286C58.3204 36.3512 58.1545 36.2218 57.9423 36.0709C57.7616 35.9416 57.4913 35.7559 57.2161 35.6282C56.9724 35.5155 56.722 35.4442 56.4517 35.4144C56.2279 35.3895 55.9941 35.3945 55.7222 35.3994L55.5597 35.4027C55.2132 35.4094 54.8119 35.4094 54.4289 35.4027C53.9845 35.3961 53.6264 35.3795 53.3014 35.3513C52.9333 35.3182 52.5818 35.2651 52.2519 35.2154C51.9219 35.164 51.5986 35.1126 51.2571 35.0413C50.9205 34.97 50.5673 34.8788 50.2274 34.7893L50.1379 34.7661C49.8311 34.6881 49.5144 34.6069 49.206 34.5439C48.8529 34.4709 48.5213 34.4245 48.193 34.4013C47.8199 34.3748 47.4817 34.3797 47.2628 34.4162C47.1235 34.4411 47.0174 34.4792 46.9063 34.5223C46.8284 34.5522 46.7538 34.5804 46.6692 34.6036C46.4255 34.6715 46.1453 34.6964 45.8103 34.6765C45.4887 34.6583 45.1007 34.5953 44.653 34.4925C44.1987 34.388 43.7494 34.257 43.3548 34.1144C43.1425 34.0382 42.9452 33.9586 42.7363 33.874C42.5423 33.7961 42.3417 33.7148 42.1228 33.6353C41.7166 33.486 41.2258 33.3302 40.5311 33.1296C40.0271 32.9836 39.276 32.7731 38.5928 32.6305C37.9561 32.4962 37.404 32.4249 36.9083 32.4116C36.4473 32.4 36.003 32.4415 35.6896 32.5244C35.6763 32.5277 35.6647 32.531 35.6531 32.5343C35.7161 32.5559 35.7841 32.5791 35.8554 32.604C36.0726 32.6819 36.3246 32.7731 36.5899 32.8941C36.6927 32.9405 36.7988 32.9919 36.9066 33.0417C37.0591 33.1146 37.2167 33.1909 37.3675 33.2523C37.472 33.2954 37.5748 33.3335 37.6793 33.3716C37.8335 33.428 37.9926 33.4877 38.1551 33.5623C38.4121 33.68 38.6824 33.8425 38.9858 34.0581C39.2627 34.2537 39.5214 34.461 39.7568 34.6765C40.037 34.9319 40.2376 35.1623 40.3902 35.4027C40.5742 35.6896 40.6986 36.003 40.74 36.2848C40.7831 36.575 40.7433 36.8254 40.7035 37.0674L40.6654 37.3012L40.4283 37.2813L40.1232 37.2465C39.6756 37.1951 39.2279 37.1437 38.7703 37.0906C38.1734 37.021 37.6279 36.963 36.9713 36.9381C36.4739 36.9199 35.8587 36.9182 35.091 36.9331C34.8274 36.9381 34.708 36.9431 34.5605 36.9481L34.1559 36.9613C33.7546 36.9729 33.0848 36.9912 32.4216 37.0376C31.6788 37.089 30.9757 37.1719 30.213 37.2996C29.4404 37.4272 28.5517 37.6129 27.6911 37.7903L27.3894 37.8583C27.2037 37.9014 26.819 37.9926 26.3813 38.1054C25.8557 38.243 25.3798 38.3823 24.9305 38.5348C24.3618 38.7255 23.8246 38.9394 23.3752 39.1499C23.0668 39.2942 22.7883 39.4434 22.5711 39.5628C22.6556 39.591 22.7419 39.6225 22.8281 39.654C23.1497 39.775 23.5444 39.9524 24.0053 40.1813C24.3568 40.3537 24.8807 40.6223 25.3798 40.9158C25.796 41.1612 26.1856 41.4182 26.4111 41.5773L26.4559 41.6088C26.4841 41.6287 26.5139 41.6503 26.5338 41.6636C26.5438 41.6602 26.5587 41.6553 26.5819 41.6486C26.693 41.6105 26.9434 41.511 27.5121 41.2557L27.7226 41.1595C28.0692 41.0003 28.4605 40.8213 28.8385 40.6754C29.326 40.488 29.7952 40.3537 30.1898 40.2459C30.6872 40.1116 31.1399 40.0005 31.5362 39.9176C31.954 39.8297 32.3569 39.7634 32.8013 39.7104C33.2324 39.6573 33.6916 39.6192 34.1642 39.5943C34.7047 39.5645 35.2154 39.5562 35.7708 39.5678C36.2898 39.5794 36.8751 39.6092 37.4405 39.6374L37.9147 39.6606C38.5 39.6888 39.0538 39.717 39.6225 39.7866C40.2708 39.8646 40.939 40.0005 41.506 40.1216L41.831 40.1912C42.3119 40.294 42.7645 40.3918 43.2271 40.4631C43.8207 40.556 44.396 40.6007 44.9879 40.6007C45.6197 40.6007 46.2895 40.551 46.9212 40.4565C47.548 40.3636 48.1349 40.2277 48.4301 40.1547L48.4798 40.1431C48.6738 40.095 48.8263 40.0586 48.9308 40.2161C49.0319 40.3703 48.9258 40.5129 48.8893 40.5609L48.8695 40.5875C48.8462 40.619 48.8181 40.6621 48.7865 40.7102C48.7053 40.8312 48.5942 40.997 48.4665 41.1545C48.3074 41.3485 48.0852 41.579 47.6475 41.8194C47.2363 42.0466 46.6758 42.2654 46.1851 42.3914C45.7308 42.5092 45.3063 42.5539 44.8951 42.597L44.4657 42.6451C44.0793 42.6882 43.6797 42.7347 43.2337 42.7446C42.7761 42.7562 42.277 42.7297 41.7481 42.7032L41.4414 42.6882C40.8577 42.6584 40.2094 42.6335 39.4567 42.612C38.7056 42.5904 38.0407 42.5805 37.4239 42.5805C36.6612 42.5805 35.9864 42.5954 35.474 42.6252C34.897 42.6567 34.4577 42.7081 33.9553 42.806C33.4595 42.9021 32.8593 43.0497 32.2176 43.2337C31.6141 43.4095 30.9973 43.6085 30.48 43.7958C30.1152 43.9285 29.8217 44.0462 29.6211 44.1341C29.7753 44.2103 29.9809 44.3115 30.2114 44.4325C30.5844 44.6315 30.9409 44.8404 31.3306 45.0874C31.7733 45.3676 32.2906 45.7158 32.7465 46.0458C33.2688 46.4238 33.6668 46.7422 34.0365 47.0788C34.4593 47.4601 34.8821 47.8995 35.033 48.057C35.101 47.9708 35.1872 47.8696 35.295 47.7702C35.4724 47.6044 35.7128 47.4402 36.0278 47.2694C36.3429 47.097 36.6894 46.9428 37.0873 46.7952C37.545 46.6261 38.0556 46.4736 38.5265 46.3658C39.0123 46.253 39.5214 46.1735 40.0834 46.1187C40.6306 46.0657 41.2059 46.0408 41.8426 46.0408C42.2671 46.0408 42.7347 46.0524 43.1873 46.064C43.4277 46.0707 43.6698 46.0756 43.9069 46.0806C44.3629 46.0889 44.8022 46.0922 45.2483 46.0939C45.4754 46.0955 45.7026 46.0972 45.9347 46.0988L46.389 46.1038C46.9229 46.1105 47.475 46.1154 47.936 46.1055C48.5577 46.0922 49.017 46.0508 49.4183 46.0077C49.8079 45.9662 50.2688 45.9082 50.7397 45.8037C51.0614 45.7341 51.3947 45.6412 51.6384 45.5732C51.7362 45.5451 51.8224 45.5218 51.8871 45.5053C52.033 45.4671 52.2154 45.419 52.3315 45.5732C52.4442 45.7225 52.3563 45.8717 52.3 45.9728L52.2884 45.9927C52.2005 46.142 52.0546 46.3923 51.8656 46.6361C51.6583 46.903 51.4096 47.1467 51.1294 47.3623C50.8475 47.5778 50.5126 47.7801 50.1345 47.9625C49.7731 48.1382 49.3669 48.2958 48.891 48.4483C48.3405 48.6241 47.8166 48.755 47.2877 48.8462C46.6725 48.954 45.9762 49.0203 45.3162 49.0784C44.8221 49.1215 44.2982 49.1662 43.7676 49.211L43.0563 49.2707C42.355 49.3287 41.5624 49.3951 40.8776 49.4796C40.173 49.5675 39.6092 49.6703 39.1068 49.8063C38.6293 49.9339 38.1236 50.113 37.7224 50.2954C37.5267 50.3849 37.3742 50.4662 37.2598 50.5341C37.283 50.5474 37.3079 50.5623 37.3344 50.5772C37.5002 50.6767 37.7025 50.8177 37.9727 51.0183C38.1816 51.1741 38.4287 51.3615 38.7288 51.6417C39.0173 51.9103 39.3506 52.2585 39.6706 52.6216C39.901 52.8853 40.163 53.2036 40.4316 53.5452C40.4366 53.5518 40.4432 53.5601 40.4482 53.5667L40.8975 53.3263C41.1462 53.192 41.458 53.0229 41.8426 52.8471C42.3417 52.6183 42.7745 52.4658 43.2022 52.3646C43.7444 52.2386 44.3264 52.1889 44.7741 52.1607C45.2698 52.1292 45.7357 52.1159 46.3277 52.1027L47.034 52.0877C47.4071 52.0794 47.7934 52.0728 48.1515 52.0645C48.7667 52.0513 49.2707 52.0397 49.7068 52.0015C50.1064 51.9684 50.4512 51.9136 50.6568 51.8805L50.7215 51.8705C50.8674 51.8473 51.0332 51.8191 51.1344 51.9733C51.2372 52.1275 51.1426 52.2784 51.073 52.3878C51.0067 52.4956 50.7596 52.877 50.423 53.2882C50.1263 53.6513 49.7598 54.031 49.3951 54.3543C48.9988 54.7075 48.634 54.9661 48.2112 55.1916C47.7552 55.437 47.2097 55.6575 46.6344 55.83C46.0441 56.0074 45.4273 56.1251 44.9034 56.2179C44.3446 56.3174 43.7859 56.4053 43.2603 56.4865L42.8441 56.5512C42.5805 56.5827 42.3633 56.6175 42.2173 56.6407ZM49.9621 39.6822C49.8925 39.6822 49.8378 39.6573 49.783 39.596C49.7383 39.5479 49.6753 39.4434 49.7515 39.2826L49.7748 39.2328C49.8046 39.1715 49.846 39.0836 49.8875 38.9858C49.9455 38.8432 49.9837 38.7205 50.0052 38.6127C50.0301 38.49 50.0334 38.3839 50.0185 38.2944C50.0102 38.2496 49.9986 38.2082 49.9886 38.1717C49.9621 38.0788 49.9389 37.9926 49.9605 37.8981C49.9804 37.8119 50.0384 37.7389 50.1163 37.7008C50.2556 37.6328 50.4081 37.6875 50.5109 37.7356C50.5839 37.7704 50.6618 37.8169 50.7431 37.865C50.8077 37.9031 50.8757 37.9445 50.9453 37.981C51.0912 38.0589 51.2405 38.117 51.4278 38.1932L51.4958 38.2214C51.6765 38.2944 51.8639 38.369 51.965 38.4187C52.1027 38.4851 52.169 38.5796 52.164 38.699C52.1557 38.8946 52.0032 38.9526 51.6997 39.0704C51.3482 39.2047 50.6883 39.4534 50.3617 39.5711C50.176 39.6391 50.055 39.6822 49.9621 39.6822ZM50.5209 38.311C50.5308 38.4353 50.5209 38.5696 50.4927 38.7122C50.4728 38.8084 50.4446 38.9112 50.4048 39.0239C50.6767 38.9228 51.0349 38.7885 51.3151 38.6824C51.3134 38.6824 51.3134 38.6807 51.3118 38.6807L51.2454 38.6542C51.0515 38.5779 50.884 38.5099 50.7149 38.4204C50.6485 38.3856 50.5822 38.3474 50.5209 38.311ZM43.7759 39.4252C43.5405 39.4252 43.3714 39.4252 43.2603 39.4186C43.174 39.4136 42.9684 39.402 42.8822 39.1914C42.8706 39.1632 42.8308 39.0687 42.8391 38.8432C42.8424 38.7354 42.8557 38.5928 42.9369 38.4486C43.0132 38.3159 43.1326 38.2098 43.2503 38.1153C43.3763 38.0142 43.5206 37.9147 43.6549 37.8334C43.7428 37.7821 43.8273 37.7389 43.9019 37.7025C43.9401 37.6826 43.9765 37.666 44.008 37.6477C43.9848 37.6063 43.9533 37.5549 43.9135 37.4952C43.8389 37.3841 43.7361 37.2498 43.6366 37.1221C43.5405 36.9978 43.4592 36.8917 43.3166 36.7524C43.2619 36.6977 43.1989 36.6397 43.1376 36.5816C43.0165 36.4672 42.9104 36.3694 42.8524 36.2948L42.8507 36.2931C42.7363 36.1422 42.7728 36.0195 42.8043 35.9599C42.8889 35.7974 43.0646 35.8057 43.1508 35.809L43.2536 35.8139C43.3133 35.8173 43.3813 35.8206 43.4642 35.8256C43.5985 35.8338 43.7743 35.8488 43.9815 35.867C44.1921 35.8836 44.4275 35.9035 44.653 35.94C44.8719 35.9748 45.0908 36.0278 45.3212 36.1024C45.55 36.1737 45.7755 36.2616 45.9861 36.3628C46.2116 36.4705 46.4205 36.5932 46.5929 36.7192C46.7886 36.8602 46.9312 37.0011 47.0439 37.1636C47.1716 37.3493 47.2578 37.5532 47.291 37.7522C47.3258 37.9528 47.3076 38.1651 47.2412 38.3474C47.1816 38.5166 47.0837 38.6558 46.9428 38.7736C46.8267 38.8714 46.6924 38.9443 46.525 39.0223C46.4056 39.0786 46.2215 39.1599 46.0358 39.2212C45.8634 39.2793 45.7042 39.3124 45.4721 39.3423C45.2284 39.3738 44.91 39.3987 44.6182 39.4119C44.3131 39.4252 44.0147 39.4252 43.7759 39.4252ZM43.3349 38.9244C43.4327 38.9278 43.5803 38.9278 43.7743 38.9278C44.0097 38.9278 44.3032 38.9278 44.6 38.9162C44.8769 38.9046 45.1803 38.8797 45.4108 38.8498C45.6114 38.825 45.7374 38.7968 45.88 38.7504C46.0425 38.6956 46.2066 38.6243 46.3144 38.5729C46.4454 38.5116 46.5465 38.4585 46.6228 38.3939C46.6957 38.3342 46.7422 38.2679 46.772 38.1816C46.8102 38.0772 46.8201 37.9545 46.8002 37.8368C46.7787 37.7091 46.7206 37.5715 46.6344 37.4488C46.5548 37.3344 46.4487 37.2316 46.3011 37.1238C46.1519 37.016 45.9695 36.9083 45.7706 36.8137C45.5832 36.7242 45.3759 36.643 45.1703 36.5783C44.9598 36.5103 44.7691 36.4656 44.5718 36.4324C44.3645 36.3976 44.1407 36.381 43.9434 36.3644C43.8157 36.3528 43.7013 36.3429 43.6018 36.3362C43.6234 36.3578 43.6449 36.3777 43.6648 36.3976C43.829 36.5601 43.9251 36.6844 44.0279 36.8154C44.1324 36.9497 44.2418 37.0923 44.3247 37.215C44.4143 37.3476 44.4723 37.4554 44.5021 37.5217C44.5287 37.5765 44.6016 37.729 44.4939 37.8865C44.4425 37.9578 44.3662 38.0175 44.2435 38.0822C44.2087 38.1004 44.1672 38.122 44.1224 38.1452C44.0561 38.1783 43.9815 38.2165 43.9036 38.2612C43.7908 38.3275 43.6648 38.4154 43.5587 38.5016C43.4858 38.5597 43.3995 38.6326 43.3647 38.694C43.3432 38.7321 43.3332 38.7785 43.3316 38.8565C43.3349 38.883 43.3349 38.9046 43.3349 38.9244Z" fill="white"/>
<path d="M14.3587 79.9928C13.2495 78.8703 12.6974 78.3065 12.704 78.2999C12.7106 78.2933 12.5249 78.5353 12.1486 79.0261C11.7722 79.5186 11.5881 79.7656 11.5948 79.7722C11.6014 79.7805 11.865 80.0408 12.389 80.5565C12.9113 81.0738 13.4103 81.5812 13.8812 82.0769L14.5909 82.8231L15.327 82.2693C15.8178 81.8995 16.0715 81.7138 16.0831 81.7138" fill="white"/>
<path d="M12.2845 82.3074C11.2947 81.3507 10.8006 80.8715 10.8006 80.8682C10.8006 80.8649 10.6099 81.097 10.2269 81.5663L9.65318 82.2693L10.8735 83.536L12.0922 84.8044L12.83 84.1876L13.5662 83.5692" fill="white"/>
<path d="M14.0288 63.2033C14.2924 63.3708 14.5428 63.6477 14.7782 64.034C15.0817 64.5298 15.1728 65.0139 15.0535 65.4881C14.9341 65.9607 14.6273 66.3487 14.1332 66.6504C13.6126 66.9688 13.087 67.0649 12.5581 66.9422C12.0292 66.8196 11.6064 66.4995 11.293 65.9856C11.0957 65.6639 10.9747 65.3688 10.9249 65.1002L11.6031 64.6856C11.608 64.9874 11.6976 65.2792 11.87 65.5628C12.0673 65.8844 12.326 66.0784 12.6493 66.1464C12.9726 66.2144 13.2992 66.1464 13.6325 65.9441C13.9558 65.7468 14.1598 65.4964 14.246 65.193C14.3306 64.8896 14.2792 64.5828 14.0885 64.2711C13.9094 63.9776 13.6756 63.7538 13.3871 63.5996L14.0288 63.2033Z" fill="white"/>
<path d="M12.4586 59.6369L12.8101 60.383L9.97153 61.7177L10.6712 63.205L13.5098 61.8703L13.8597 62.6147L10.3678 64.2578L8.96675 61.28L12.4586 59.6369Z" fill="white"/>
<path d="M11.4223 56.722L12.1817 58.8758L8.54229 60.1591L7.81274 58.0899L8.44778 57.8661L8.90374 59.161L9.76096 58.8592L9.3365 57.6555L9.96821 57.4333L10.3927 58.637L11.2748 58.327L10.7889 56.9475L11.4223 56.722Z" fill="white"/>
<path d="M11.3726 52.2386L11.5417 52.9466L10.522 53.1903L11.2449 56.218L7.49108 57.115L7.3004 56.3158L10.3678 55.5829L9.98645 53.9862L6.91739 54.7158L6.72506 53.9133L9.79246 53.1804L9.66479 52.6448L11.3726 52.2386Z" fill="white"/>
<path d="M9.90687 48.5445L9.99143 49.3188L7.80943 49.5592C7.58393 49.5841 7.37834 49.5973 7.19429 49.599L7.19595 49.6156C7.2573 49.6355 7.36673 49.6852 7.52756 49.7648L10.1887 51.1194L10.2799 51.9534L6.44319 52.3762L6.35863 51.6019L8.54561 51.3615C8.80924 51.3333 8.98665 51.3201 9.07784 51.325L9.07618 51.3151L6.1663 49.8527L6.06847 48.9656L9.90687 48.5445Z" fill="white"/>
<path d="M9.90023 44.3944L9.8936 45.2914L9.00654 45.5749L8.99825 46.9776L9.88034 47.2678L9.8737 48.1598L6.0237 46.7223L6.03034 45.7556L9.90023 44.3944ZM8.37151 45.7656L7.03014 46.195C6.94558 46.2232 6.83283 46.2414 6.69356 46.2531V46.2746C6.80631 46.2846 6.91574 46.3078 7.02019 46.3443L8.36488 46.7936L8.37151 45.7656Z" fill="white"/>
<path d="M10.3065 40.934L10.2103 41.7514L7.06331 41.3784L6.9688 42.1776C8.36985 42.5456 9.23867 42.8375 9.57194 43.0497C9.90687 43.2636 10.0511 43.5604 10.0064 43.9384C9.98645 44.1026 9.945 44.2501 9.87868 44.3844L9.22043 44.3065C9.27018 44.207 9.30002 44.1191 9.30997 44.0412C9.3166 43.9848 9.30665 43.9301 9.28012 43.8771C9.25359 43.824 9.19225 43.7643 9.09608 43.698C8.99991 43.6317 8.79763 43.5421 8.49089 43.4294C8.18249 43.3166 7.81938 43.2022 7.39823 43.0862L6.20609 42.7562L6.4747 40.4781L10.3065 40.934Z" fill="white"/>
<path d="M10.4573 40.1398L6.69356 39.2876L6.87594 38.4851L8.30684 38.81L8.43617 38.2397C8.63845 37.346 9.10768 36.9812 9.84054 37.1487C10.2252 37.2366 10.5004 37.4256 10.6629 37.7157C10.8254 38.0059 10.8586 38.3707 10.7591 38.8084L10.4573 40.1398ZM8.92032 38.9477L10.0229 39.198L10.1158 38.7868C10.2153 38.3474 10.0776 38.0855 9.70292 38.0009C9.34147 37.9197 9.11266 38.0938 9.01483 38.5249L8.92032 38.9477Z" fill="white"/>
<path d="M12.2779 33.8044L12.0109 34.582L10.5054 34.0664L9.97153 35.6216L11.477 36.1373L11.2101 36.9149L7.56072 35.6647L7.82767 34.8871L9.30002 35.3911L9.83391 33.8359L8.36156 33.3318L8.62851 32.5542L12.2779 33.8044Z" fill="white"/>
<path d="M14.0288 30.039L13.6441 30.8497L12.7206 30.7304L12.1187 31.9971L12.7952 32.6338L12.4122 33.4396L9.53381 30.5049L9.94832 29.6327L14.0288 30.039ZM12.064 30.6325L10.6679 30.4535C10.5784 30.4419 10.4689 30.412 10.338 30.3623L10.328 30.3822C10.4258 30.4402 10.5137 30.5065 10.5933 30.5828L11.6213 31.5594L12.064 30.6325Z" fill="white"/>
<path d="M15.5956 27.4889L15.1662 28.1935L13.8729 27.4043L13.732 27.6331C13.6192 27.8172 13.6657 28.0526 13.8729 28.3411L14.5262 29.2398L14.0304 30.0522L13.3191 28.9795C13.1251 28.6876 13.0588 28.419 13.1185 28.1736L13.1069 28.167C12.699 28.5799 12.2713 28.6495 11.8219 28.3743C11.5301 28.1969 11.366 27.9498 11.3278 27.6348C11.2897 27.3197 11.3875 26.9732 11.618 26.5952L12.2994 25.4793L15.5956 27.4889ZM13.3424 27.0793L12.4138 26.5123L12.2082 26.8489C11.9894 27.2087 12.0292 27.4806 12.3309 27.6663C12.4735 27.7542 12.6194 27.7757 12.7653 27.7309C12.9113 27.6878 13.0356 27.5834 13.1351 27.4192L13.3424 27.0793Z" fill="white"/>
<path d="M81.8697 31.954L81.5265 31.2046L84.3767 29.8964L83.6902 28.4025L80.84 29.7107L80.4968 28.9629L84.0036 27.3529L85.3765 30.344L81.8697 31.954Z" fill="white"/>
<path d="M83.8676 31.8827C84.443 31.697 84.9653 31.7152 85.4345 31.9341C85.9037 32.1546 86.227 32.5393 86.4045 33.0914C86.5736 33.617 86.5338 34.0945 86.2884 34.5273C86.0413 34.9601 85.6451 35.2651 85.0963 35.4409C84.5242 35.6249 84.0053 35.6084 83.5427 35.3895C83.0784 35.1706 82.7601 34.7926 82.5876 34.2537C82.4185 33.7265 82.4533 33.244 82.6937 32.8046C82.9325 32.3652 83.3238 32.0568 83.8676 31.8827ZM84.176 32.6918C83.8179 32.8062 83.5543 32.987 83.3818 33.2324C83.2111 33.4778 83.1729 33.7513 83.2691 34.0514C83.3686 34.3582 83.5526 34.5621 83.8262 34.6633C84.0981 34.7644 84.4181 34.7561 84.7845 34.6384C85.1676 34.5157 85.4428 34.335 85.6119 34.0979C85.781 33.8608 85.8158 33.5905 85.7197 33.2887C85.6219 32.982 85.4295 32.7764 85.146 32.6736C84.8608 32.5691 84.5375 32.5758 84.176 32.6918Z" fill="white"/>
<path d="M83.0055 40.2874L82.8678 39.5761L83.8975 39.3771L83.4266 36.9414L82.3969 37.1404L82.261 36.4357L83.9539 36.1074L84.0202 36.4523C85.015 36.7756 86.111 36.8502 87.3064 36.6745L87.7226 38.8217L84.5972 39.4268L84.7 39.9607L83.0055 40.2874ZM84.438 38.6177L86.887 38.1435L86.7543 37.4604C85.9518 37.5648 85.0946 37.5052 84.1794 37.283L84.438 38.6177Z" fill="white"/>
<path d="M87.4341 42.6203L87.3015 41.1811L84.1412 41.4712L84.0666 40.6522L87.91 40.3006L88.1172 42.5589L87.4341 42.6203Z" fill="white"/>
<path d="M86.1989 43.1293C86.8041 43.1359 87.2932 43.3183 87.6679 43.6764C88.0426 44.0346 88.2267 44.5021 88.22 45.0825C88.2134 45.6346 88.0244 46.0756 87.653 46.4073C87.2816 46.7389 86.809 46.9013 86.232 46.8947C85.6302 46.8881 85.1443 46.7074 84.7746 46.3525C84.4049 45.9977 84.2225 45.5384 84.2291 44.9714C84.2357 44.4176 84.4231 43.9716 84.7895 43.63C85.1576 43.2901 85.6268 43.1226 86.1989 43.1293ZM86.2337 43.9948C85.859 43.9898 85.5506 44.0777 85.3102 44.2551C85.0697 44.4325 84.947 44.6796 84.9437 44.9962C84.9404 45.3179 85.0515 45.5699 85.277 45.7523C85.5025 45.9347 85.8092 46.0276 86.1939 46.0325C86.5951 46.0375 86.9151 45.9546 87.1506 45.7822C87.386 45.6097 87.5054 45.366 87.5087 45.0493C87.512 44.7276 87.396 44.4723 87.1589 44.2833C86.9218 44.0959 86.6134 43.9998 86.2337 43.9948Z" fill="white"/>
<path d="M87.0876 50.4297L87.2086 49.3354L84.0417 48.9839L84.1329 48.1648L87.2998 48.5163L87.4208 47.4236L88.089 47.4982L87.7558 50.5043L87.0876 50.4297Z" fill="white"/>
<path d="M85.7429 50.6817C86.3332 50.811 86.7759 51.0879 87.071 51.5141C87.3661 51.9402 87.4524 52.4359 87.328 53.003C87.2103 53.5419 86.935 53.9365 86.5056 54.1868C86.0745 54.4372 85.5788 54.5002 85.015 54.3775C84.4281 54.2482 83.9887 53.9746 83.6969 53.5518C83.405 53.1307 83.3205 52.6432 83.4415 52.0894C83.5592 51.5489 83.8328 51.1493 84.2623 50.889C84.6917 50.6287 85.1841 50.559 85.7429 50.6817ZM85.602 51.5356C85.2355 51.456 84.9155 51.4776 84.6453 51.6036C84.3733 51.7296 84.2042 51.9468 84.1362 52.2552C84.0666 52.5702 84.1246 52.8388 84.3103 53.0627C84.4944 53.2865 84.7763 53.4407 85.1526 53.522C85.5456 53.6082 85.8739 53.5899 86.1392 53.4706C86.4045 53.3495 86.5719 53.1356 86.6383 52.8256C86.7079 52.5105 86.6449 52.237 86.4509 52.0048C86.2569 51.7727 85.9734 51.6169 85.602 51.5356Z" fill="white"/>
<path d="M82.9225 54.4903L86.5802 55.7205L86.1441 57.0188C86.0098 57.4167 85.8308 57.6986 85.6069 57.8627C85.3831 58.0269 85.1377 58.065 84.8708 57.9755C84.6718 57.9092 84.5209 57.7832 84.4165 57.5991C84.312 57.4151 84.2656 57.2111 84.2772 56.9889L84.2672 56.9856C84.1495 57.2294 83.987 57.4035 83.7764 57.5079C83.5659 57.6124 83.342 57.624 83.1049 57.5444C82.7733 57.4333 82.5478 57.2261 82.4318 56.9243C82.3157 56.6225 82.3257 56.266 82.4633 55.8565L82.9225 54.4903ZM84.2457 55.8018L83.2426 55.4635L83.0867 55.9261C83.0204 56.1234 83.0137 56.2926 83.0685 56.4335C83.1232 56.5744 83.2309 56.6739 83.3934 56.727C83.5476 56.7784 83.6853 56.7635 83.8079 56.6822C83.9306 56.601 84.0252 56.4584 84.0931 56.2544L84.2457 55.8018ZM85.7379 56.3042L84.8326 55.9991L84.7083 56.3705C84.6486 56.5479 84.6436 56.7021 84.695 56.8331C84.7447 56.9641 84.8476 57.0553 85.0001 57.1067C85.2803 57.2012 85.4892 57.0437 85.6268 56.6341L85.7379 56.3042Z" fill="white"/>
<path d="M80.5084 60.5637L80.9362 59.6136L82.9541 59.2422C83.0055 59.2323 83.0817 59.229 83.1795 59.2323L83.1845 59.2207L81.4635 58.4431L81.8017 57.6936L85.3184 59.282L84.9802 60.0315L83.3188 59.2804L83.3139 59.292C83.3719 59.3583 83.42 59.4197 83.4564 59.4777L84.4745 61.1507L84.0699 62.046L82.9607 60.0298L80.5084 60.5637Z" fill="white"/>
<path d="M78.6663 63.7124L79.119 62.938L80.0292 63.1354L80.7372 61.925L80.1171 61.2336L80.5665 60.4626L83.1862 63.6295L82.6987 64.4635L78.6663 63.7124ZM80.6742 63.2862L82.0504 63.583C82.1383 63.6013 82.2444 63.6411 82.3704 63.7007L82.382 63.6809C82.2892 63.6162 82.2063 63.5416 82.1333 63.4587L81.1915 62.3975L80.6742 63.2862Z" fill="white"/>
<path d="M36.963 11.4853L35.9416 7.76301L38.2911 7.11803L38.4702 7.7713L36.9132 8.19908L37.1487 9.05629L37.865 8.85898C38.2397 8.75618 38.5647 8.76282 38.8416 8.88054C39.1184 8.99826 39.3008 9.2221 39.392 9.55536C39.4932 9.92677 39.4567 10.2468 39.2793 10.5154C39.1019 10.784 38.8084 10.9747 38.3989 11.0874L36.963 11.4853ZM37.3095 9.64158L37.5947 10.6795L38.0987 10.5402C38.5066 10.4275 38.6625 10.1937 38.5647 9.83889C38.4718 9.50231 38.2297 9.3879 37.8368 9.49567L37.3095 9.64158Z" fill="white"/>
<path d="M39.712 8.79431C39.6159 8.19741 39.712 7.68342 40.0005 7.25232C40.289 6.82123 40.7185 6.56091 41.2922 6.46972C41.836 6.38185 42.3036 6.49293 42.6949 6.80299C43.0862 7.11305 43.3249 7.55077 43.4161 8.12114C43.5106 8.71473 43.4161 9.22375 43.1293 9.64987C42.8424 10.076 42.4213 10.333 41.8609 10.4225C41.3154 10.5104 40.8428 10.4026 40.4432 10.0975C40.047 9.79246 39.8016 9.35805 39.712 8.79431ZM40.5576 8.61358C40.6173 8.98333 40.755 9.27183 40.9705 9.47909C41.1877 9.68634 41.4513 9.76427 41.763 9.71453C42.0814 9.66313 42.3102 9.51059 42.4511 9.25691C42.5921 9.00323 42.6319 8.68654 42.5705 8.30519C42.5075 7.90891 42.3699 7.6088 42.161 7.40652C41.9521 7.20424 41.6901 7.12797 41.3767 7.17771C41.0584 7.22911 40.8262 7.38663 40.682 7.65191C40.5411 7.9172 40.498 8.23721 40.5576 8.61358Z" fill="white"/>
<path d="M46.5664 9.90189L44.2849 10.0362L44.0594 6.18288L46.2514 6.05521L46.2912 6.72672L44.92 6.8063L44.973 7.71492L46.2464 7.64031L46.2862 8.31016L45.0128 8.38477L45.0675 9.31826L46.5283 9.23369L46.5664 9.90189Z" fill="white"/>
<path d="M47.1235 9.8936L47.2446 6.03697L48.6141 6.08008C49.0336 6.09335 49.3553 6.18288 49.5774 6.35034C49.7996 6.51615 49.9074 6.74164 49.8975 7.02351C49.8908 7.23243 49.8145 7.41481 49.6686 7.56736C49.5227 7.7199 49.342 7.82435 49.1248 7.87741V7.88736C49.3934 7.92881 49.6073 8.03493 49.7665 8.20736C49.9256 8.37814 50.0019 8.58872 49.9936 8.84074C49.982 9.19059 49.8494 9.46583 49.594 9.66479C49.3387 9.86376 48.9955 9.95661 48.5627 9.94335L47.1235 9.8936ZM47.9973 8.24882L47.9642 9.30665L48.4516 9.32158C48.6589 9.32821 48.823 9.2851 48.9424 9.19225C49.0618 9.0994 49.1248 8.96841 49.1298 8.79597C49.1347 8.63348 49.0817 8.50581 48.9673 8.4113C48.8545 8.31845 48.6904 8.26871 48.4765 8.26042L47.9973 8.24882ZM48.0471 6.67532L48.0172 7.6287L48.4085 7.64031C48.5959 7.64694 48.7451 7.60549 48.8562 7.51927C48.9673 7.43305 49.0253 7.3087 49.0303 7.14787C49.0402 6.85273 48.828 6.69854 48.3969 6.68527L48.0471 6.67532Z" fill="white"/>
<path d="M53.8386 10.4839L52.9499 10.3628L52.7825 9.44759L51.393 9.25857L50.9934 10.0975L50.1097 9.97651L52.0281 6.34206L52.9864 6.47304L53.8386 10.4839ZM52.6764 8.79266L52.421 7.40818C52.4044 7.32031 52.3995 7.2059 52.4077 7.06663L52.3862 7.06331C52.3613 7.1744 52.3248 7.27886 52.2751 7.37834L51.6566 8.65504L52.6764 8.79266Z" fill="white"/>
<path d="M56.7552 11.2051L55.9543 11.0095L56.3141 9.53879L56.0521 9.47412C55.8416 9.42272 55.6327 9.53879 55.4204 9.82232L54.7622 10.7177L53.837 10.4922L54.6445 9.48905C54.8633 9.21547 55.0988 9.07122 55.3508 9.05298L55.3541 9.04137C54.8368 8.77774 54.6411 8.39142 54.7655 7.87908C54.8467 7.54747 55.0324 7.31534 55.3209 7.18269C55.6094 7.05171 55.9692 7.03844 56.4003 7.14456L57.6704 7.45462L56.7552 11.2051ZM56.4617 8.9336L56.7203 7.87576L56.3373 7.78291C55.9278 7.68343 55.6807 7.80446 55.5962 8.14768C55.5564 8.31017 55.5796 8.45608 55.6658 8.58209C55.752 8.7081 55.888 8.79432 56.0754 8.84075L56.4617 8.9336Z" fill="white"/>
<path d="M68.1874 80.268C68.3018 80.2232 68.7578 79.9579 69.557 79.4688C70.3545 78.9814 71.1089 78.4557 71.8252 77.8953C72.5382 77.3332 73.1699 76.7977 73.7187 76.287C74.2675 75.778 74.8478 75.1761 75.4596 74.488C76.0731 73.7999 76.5822 73.1931 76.99 72.6708C77.3979 72.1469 77.8191 71.5599 78.2535 70.91C78.6862 70.26 78.9814 69.8057 79.1322 69.552L79.3627 69.169L80.1271 69.9931C80.6378 70.5419 80.8798 70.8154 80.855 70.8154C80.8284 70.8154 80.5681 71.2051 80.0707 71.9827C79.5733 72.7603 79.0062 73.5529 78.3679 74.3554C77.7295 75.1595 77.0232 75.9571 76.2439 76.748C75.4663 77.5388 74.6174 78.3165 73.6988 79.0825C72.7802 79.8469 71.9628 80.4487 71.2499 80.8815C70.5369 81.3142 70.1008 81.5895 69.9499 81.7039L69.7195 81.8763L68.6865 80.8433" fill="white"/>
<path d="M80.9163 87.207C81.0688 87.3595 81.2164 87.4938 81.3557 87.6082C81.4966 87.7243 81.6376 87.8354 81.7768 87.9431C81.9178 88.0509 82.1084 88.1537 82.3505 88.2499C82.5926 88.346 82.8977 88.419 83.2691 88.4704C83.6388 88.5218 83.9804 88.5284 84.2938 88.4886C84.6071 88.4505 84.8973 88.3742 85.1642 88.2598C85.4328 88.1454 85.6965 87.9945 85.9584 87.8105C86.2204 87.6248 86.4625 87.4175 86.6863 87.1871C86.9102 86.9583 87.0892 86.6946 87.2219 86.3929C87.3562 86.0927 87.4441 85.7877 87.4905 85.4743C87.5352 85.1626 87.5452 84.8359 87.5187 84.4977C87.4938 84.1595 87.4142 83.8196 87.2799 83.4747C87.1473 83.1298 87.0179 82.8463 86.8969 82.6224C86.7759 82.4003 86.6382 82.2278 86.4857 82.1051L86.2552 81.9227L83.5194 84.6022L80.9163 87.207Z" fill="white"/>
<path d="M87.5386 6.93729C86.9002 7.01521 86.2635 7.08983 85.5937 7.23076C84.9238 7.3717 84.2225 7.57564 83.5327 7.82434C82.8446 8.07305 82.1681 8.36653 81.3772 8.79431C80.5864 9.22208 79.6811 9.78416 78.8769 10.3197C78.0727 10.8553 77.3714 11.3659 76.7596 11.8567C76.1478 12.3475 75.6255 12.8201 75.0186 13.3606C74.4134 13.9044 73.7237 14.5146 73.1384 15.0634C72.5514 15.6122 72.0673 16.098 71.5317 16.6336C70.9962 17.1691 70.4076 17.7561 70.1158 18.0496C69.8223 18.343 69.8223 18.343 70.071 18.5536C70.3197 18.7642 70.8171 19.1853 71.3079 19.638C71.8003 20.0923 72.2845 20.5764 72.5266 20.8185C72.7703 21.0606 72.7703 21.0606 73.1069 20.729C73.4451 20.3974 74.1216 19.7341 74.9821 18.8852C75.8443 18.0363 76.8889 17.0033 78.3961 15.594C79.9016 14.1846 81.2181 12.7886 83.3072 11.0891C81.4767 13.3059 79.9779 14.8744 78.2502 16.7231C76.5208 18.5718 74.9904 20.142 74.2244 20.9395C73.46 21.7371 73.46 21.7619 73.6822 22.0239C73.9044 22.2859 74.3521 22.7833 74.7732 23.2873C75.1927 23.7914 75.589 24.3021 75.788 24.5574C75.9853 24.8128 75.9853 24.8128 76.4512 24.3402C76.9171 23.8677 77.8473 22.9242 78.7973 21.936C79.7474 20.9478 80.7173 19.9149 81.5911 18.8935C82.4649 17.8738 83.2426 16.8657 83.8743 15.9538C84.506 15.0419 84.9901 14.2261 85.3798 13.4982C85.7678 12.7703 86.0629 12.1336 86.3746 11.356C86.6863 10.5784 87.0196 9.65981 87.2169 8.89876C87.4109 8.13772 87.4756 7.53916 87.5386 6.93729Z" fill="white"/>
<path d="M25.3483 80.2514C25.2339 80.2067 24.7779 79.9414 23.9804 79.4522C23.1829 78.9648 22.4268 78.4392 21.7139 77.8788C20.9992 77.3167 20.3675 76.7811 19.8187 76.2704C19.2699 75.7614 18.6896 75.1595 18.0778 74.4715C17.4659 73.7834 16.9553 73.1765 16.5474 72.6542C16.1395 72.1303 15.7183 71.545 15.2856 70.8934C14.8512 70.2434 14.5577 69.7891 14.4052 69.5354L14.1764 69.1524L13.4103 69.9765C12.9013 70.5236 12.6576 70.7989 12.6841 70.7989C12.709 70.7989 12.9709 71.1885 13.4684 71.9661C13.9658 72.7438 14.5328 73.5363 15.1712 74.3388C15.8095 75.143 16.5159 75.9405 17.2935 76.7314C18.0711 77.5223 18.92 78.2999 19.8386 79.0659C20.7588 79.8303 21.5746 80.4305 22.2875 80.8649C23.0022 81.2993 23.4366 81.5729 23.5891 81.6873L23.8179 81.8597L24.8526 80.8268" fill="white"/>
<path d="M12.6211 87.1904C12.4686 87.3446 12.321 87.4772 12.1801 87.5916C12.0408 87.7077 11.8998 87.8188 11.7589 87.9265C11.6196 88.0343 11.4273 88.1371 11.1852 88.2333C10.9432 88.3295 10.6364 88.4024 10.265 88.4538C9.89526 88.5052 9.5537 88.5118 9.24199 88.4721C8.93028 88.4339 8.63846 88.3576 8.37151 88.2432C8.10457 88.1288 7.83762 87.978 7.57731 87.7939C7.31533 87.6082 7.07326 87.4009 6.85108 87.1705C6.62724 86.9417 6.44817 86.6764 6.31387 86.3763C6.18122 86.0762 6.09169 85.7711 6.04526 85.4577C6.00215 85.146 5.99221 84.8194 6.01708 84.4811C6.04361 84.1429 6.12319 83.803 6.25584 83.4581C6.39014 83.1132 6.51781 82.8297 6.63885 82.6059C6.75989 82.3837 6.8975 82.2112 7.05004 82.0885L7.27886 81.9062L10.0163 84.5856L12.6211 87.1904Z" fill="white"/>
<path d="M47.0605 11.555C33.1644 11.555 20.6378 19.9248 15.3204 32.7615C10.003 45.5965 12.9428 60.3714 22.77 70.1953C32.5957 80.0193 47.3722 82.959 60.2089 77.6417C73.0455 72.3243 81.417 59.7993 81.417 45.9049C81.417 26.9351 66.0353 11.555 47.0605 11.555ZM70.1141 22.6391C70.5385 23.0619 70.5385 23.75 70.1141 24.1744C69.431 24.8575 68.262 24.3734 68.262 23.4067C68.262 22.4401 69.431 21.9559 70.1141 22.6391ZM46.8466 13.0025C47.4452 13.0025 47.931 13.4866 47.931 14.0868C47.931 15.0535 46.7621 15.5376 46.079 14.8545C45.3958 14.1697 45.88 13.0025 46.8466 13.0025ZM23.5792 22.6391C24.002 22.2163 24.6884 22.2163 25.1129 22.6391C25.7976 23.3238 25.3118 24.4911 24.3468 24.4911C23.3802 24.4911 22.8961 23.3238 23.5792 22.6391ZM15.793 46.6742C15.1082 47.3573 13.9409 46.8732 13.9409 45.9065C13.9409 45.308 14.4267 44.8222 15.0253 44.8222C15.9936 44.8222 16.4761 45.9911 15.793 46.6742ZM23.5792 69.174C23.1547 68.7512 23.1547 68.0631 23.5792 67.6386C24.2623 66.9555 25.4296 67.4397 25.4296 68.4063C25.4296 69.3746 24.2639 69.8571 23.5792 69.174ZM46.8466 78.8122C46.2481 78.8122 45.7606 78.3264 45.7606 77.7262C45.7606 76.7612 46.9295 76.2771 47.6127 76.9602C48.2974 77.6433 47.8133 78.8122 46.8466 78.8122ZM70.1141 69.174C69.6896 69.5968 69.0032 69.5968 68.5804 69.174C67.8956 68.4892 68.3814 67.3219 69.3481 67.3219C70.3131 67.3219 70.7972 68.4909 70.1141 69.174ZM58.2656 72.9659C47.3225 77.4991 34.7246 74.9921 26.3481 66.6156C17.9716 58.2391 15.4647 45.6429 19.9994 34.6981C24.5326 23.7549 35.2121 16.617 47.0589 16.617C63.2348 16.617 76.3484 29.7306 76.3484 45.9065C76.3467 57.7533 69.2104 68.4328 58.2656 72.9659ZM78.6663 46.9909C77.6997 46.9909 77.2155 45.822 77.9003 45.1388C78.5834 44.4557 79.7507 44.9399 79.7507 45.9065C79.7523 46.5067 79.2665 46.9909 78.6663 46.9909Z" fill="white"/>
<path d="M42.3102 86.0695H41.6271L40.1763 84.3153C40.1265 84.254 40.0917 84.2059 40.0735 84.1711H40.0602V86.0695H39.5611V82.2096H40.0602V84.0252H40.0735C40.1017 83.9804 40.1365 83.9323 40.1763 83.8826L41.5757 82.2079H42.1908L40.5709 84.0583L42.3102 86.0695Z" fill="white"/>
<path d="M43.3017 84.627V86.0695H42.8026V82.2096H43.8986C44.3148 82.2096 44.6381 82.3107 44.8686 82.5114C45.099 82.712 45.2134 83.0005 45.2134 83.3735C45.2134 83.7516 45.0791 84.0583 44.8105 84.2938C44.5419 84.5292 44.2054 84.6403 43.8008 84.627H43.3017ZM43.3017 82.649V84.1893H43.7626C44.0661 84.1893 44.2982 84.1213 44.4557 83.9837C44.6132 83.8461 44.6928 83.6504 44.6928 83.3951C44.6928 82.8977 44.3993 82.6506 43.8107 82.6506H43.3017V82.649Z" fill="white"/>
<path d="M45.9248 86.0695V82.2096H46.4238V83.8245H47.1384C47.5297 83.8245 47.8348 83.919 48.0504 84.1064C48.2659 84.2938 48.3737 84.559 48.3737 84.9039C48.3737 85.2621 48.2593 85.5473 48.0305 85.7562C47.8017 85.9651 47.49 86.0695 47.0987 86.0695H45.9248ZM46.4238 84.2639V85.6318H47.0323C47.296 85.6318 47.4982 85.5721 47.6392 85.4511C47.7801 85.33 47.8497 85.1593 47.8497 84.9371C47.8497 84.4894 47.5778 84.2639 47.0356 84.2639H46.4238ZM49.3138 86.0695H48.8147V82.2096H49.3138V86.0695Z" fill="white"/>
<path d="M53.8022 86.0695V83.5128C53.8022 83.3022 53.8154 83.0486 53.8403 82.7534H53.827C53.7839 82.9391 53.7458 83.0685 53.7126 83.1414L52.4392 86.0695H52.1623L50.8923 83.1646C50.8624 83.0983 50.8243 82.9607 50.7779 82.7534H50.7629C50.7795 82.9325 50.7878 83.1928 50.7878 83.536V86.0695H50.312V82.2096H50.9868L52.1259 84.8558C52.2121 85.0581 52.2701 85.2156 52.2983 85.33H52.3165C52.4028 85.0929 52.4641 84.9321 52.4989 84.8459L53.6579 82.2096H54.3012V86.0695H53.8022Z" fill="white"/>
</svg>
