<svg width="30" height="30" viewBox="0 0 30 30" fill="none" xmlns="http://www.w3.org/2000/svg">
<g clip-path="url(#clip0_343_132)">
<path d="M18.0797 21.0519C18.0797 21.0519 20.4697 19.6836 21.0954 19.3548C21.7194 19.0248 22.3657 18.9416 22.7582 19.1813C23.3527 19.5449 28.344 22.8652 28.7643 23.1592C29.1846 23.4538 29.387 24.2949 28.8092 25.119C28.2336 25.943 25.5786 29.2014 24.4535 29.1666C23.3267 29.13 18.6417 29.0272 9.807 20.1901C0.974114 11.3558 0.869635 6.66953 0.833628 5.54267C0.797621 4.4164 4.05594 1.7607 4.87997 1.18458C5.70518 0.609047 6.5475 0.825682 6.84028 1.23062C7.17319 1.69163 10.4551 6.66716 10.8164 7.23738C11.0637 7.62697 10.9728 8.27688 10.6428 8.9014C10.3146 9.52711 8.94638 11.9172 8.94638 11.9172C8.94638 11.9172 9.91089 13.5623 13.1728 16.8236C16.4352 20.0856 18.0797 21.0519 18.0797 21.0519Z" stroke="#CA3232" stroke-width="2" stroke-miterlimit="10"/>
</g>
<defs>
<clipPath id="clip0_343_132">
<rect width="30" height="30" fill="white"/>
</clipPath>
</defs>
</svg>
