<svg width="24" height="24" viewBox="0 0 24 24" fill="none" xmlns="http://www.w3.org/2000/svg">
<path fill-rule="evenodd" clip-rule="evenodd" d="M12 24C18.6274 24 24 18.6274 24 12C24 5.37258 18.6274 0 12 0C5.37258 0 0 5.37258 0 12C0 18.6274 5.37258 24 12 24ZM18.3039 7.93801C18.725 8.36184 18.8617 9.32708 18.8617 9.32708C18.8617 9.32708 19.0012 10.4618 19.0012 11.5939V12.6548C19.0012 13.7896 18.8617 14.9216 18.8617 14.9216C18.8617 14.9216 18.725 15.8868 18.3039 16.3107C17.8234 16.8133 17.2919 16.8652 16.9914 16.8946C16.9584 16.8978 16.9282 16.9008 16.9012 16.904C14.9434 17.0435 12.0012 17.049 12.0012 17.049C12.0012 17.049 8.36172 17.0161 7.24063 16.9095C7.1861 16.899 7.11969 16.8909 7.04437 16.8817C6.68911 16.8384 6.13563 16.7709 5.6957 16.3107C5.27734 15.8868 5.14062 14.9216 5.14062 14.9216C5.14062 14.9216 5.00117 13.7868 5.00117 12.6548V11.5939C5.00117 10.4618 5.14336 9.32708 5.14336 9.32708C5.14336 9.32708 5.27734 8.36184 5.69844 7.93801C6.1789 7.43537 6.71043 7.38344 7.01094 7.35407C7.04392 7.35085 7.07413 7.3479 7.10117 7.34465C9.05898 7.20247 11.9984 7.20247 11.9984 7.20247H12.0039C12.0039 7.20247 14.9434 7.20247 16.9012 7.34465C16.9282 7.3479 16.9584 7.35085 16.9914 7.35407C17.2919 7.38344 17.8234 7.43537 18.3039 7.93801ZM10.5547 10.0079V13.9427L14.3363 11.9822L10.5547 10.0079Z" fill="white"/>
</svg>
