<?xml version="1.0" encoding="utf-8"?><svg width="30" height="30" fill="none" xmlns="http://www.w3.org/2000/svg" viewBox="0 0 30 30"><path d="M18.08 21.052s2.39-1.369 3.016-1.697c.623-.33 1.27-.414 1.662-.174.595.364 5.586 3.684 6.006 3.978.42.295.623 1.136.045 1.96-.575.824-3.23 4.082-4.355 4.047-1.127-.036-5.812-.139-14.647-8.976C.974 11.356.87 6.67.834 5.542.798 4.417 4.056 1.762 4.88 1.185 5.705.61 6.548.826 6.84 1.23c.333.461 3.615 5.437 3.976 6.007.248.39.157 1.04-.173 1.664-.328.626-1.697 3.016-1.697 3.016s.965 1.645 4.227 4.906c3.262 3.262 4.907 4.229 4.907 4.229z" stroke="#D9D9D9" stroke-width="2" stroke-miterlimit="10"/></svg>