<?xml version="1.0" encoding="utf-8"?><svg width="31" height="31" fill="none" xmlns="http://www.w3.org/2000/svg" viewBox="0 0 31 31"><path d="M25.756.788c.99.384 1.826.897 2.662 1.734a7.343 7.343 0 011.734 2.656c.373.952.623 2.045.696 3.645.074 1.6.092 2.112.092 6.19 0 4.079-.018 4.592-.092 6.191-.073 1.6-.33 2.693-.696 3.646a7.366 7.366 0 01-1.734 2.662 7.365 7.365 0 01-2.662 1.733c-.952.373-2.045.623-3.645.697-1.6.073-2.112.091-6.19.091-4.08 0-4.592-.018-6.192-.091-1.6-.074-2.692-.33-3.645-.697a7.365 7.365 0 01-2.662-1.733 7.366 7.366 0 01-1.734-2.662c-.372-.953-.622-2.046-.696-3.646-.073-1.6-.091-2.112-.091-6.19 0-4.079.018-4.592.091-6.191.074-1.6.33-2.693.696-3.646a7.406 7.406 0 011.728-2.655A7.365 7.365 0 016.078.788C7.031.415 8.124.165 9.723.092 11.323.018 11.836 0 15.914 0c4.079 0 4.592.018 6.191.092 1.606.067 2.699.323 3.651.696zM9.851 2.79c-1.465.067-2.259.312-2.79.52a4.679 4.679 0 00-1.728 1.123A4.679 4.679 0 004.21 6.16c-.208.532-.452 1.325-.52 2.79-.072 1.582-.085 2.058-.085 6.07 0 4.011.019 4.487.086 6.069.067 1.465.311 2.259.519 2.79a4.678 4.678 0 001.123 1.728 4.68 4.68 0 001.728 1.123c.531.208 1.325.452 2.79.519 1.582.073 2.058.085 6.07.085 4.01 0 4.487-.018 6.068-.085 1.465-.067 2.26-.311 2.79-.519a4.68 4.68 0 001.728-1.123 4.677 4.677 0 001.124-1.728c.207-.531.451-1.325.519-2.79.073-1.582.085-2.058.085-6.07 0-4.01-.018-4.487-.085-6.068-.067-1.466-.312-2.26-.52-2.79a4.678 4.678 0 00-1.123-1.728 4.679 4.679 0 00-1.728-1.124c-.53-.207-1.325-.452-2.79-.519-1.581-.073-2.057-.085-6.069-.085-4.011 0-4.487.012-6.069.085z" fill="#fff"/><path d="M23.632 15.02a7.712 7.712 0 11-7.712-7.712 7.708 7.708 0 017.712 7.712zm-12.718 0a5.006 5.006 0 005.006 5.006 5.006 5.006 0 005.007-5.006 5.005 5.005 0 00-5.007-5.007 5.006 5.006 0 00-5.006 5.007zM7.898 8.804a1.801 1.801 0 110-3.602 1.801 1.801 0 010 3.602z" fill="#fff"/></svg>