<?xml version="1.0" encoding="utf-8"?><svg width="94" height="94" fill="none" xmlns="http://www.w3.org/2000/svg" viewBox="0 0 94 94"><path d="M46.923 18.278c15.178-.005 27.484 12.297 27.489 27.473a27.477 27.477 0 01-46.905 19.446 27.481 27.481 0 01-5.969-29.945 27.484 27.484 0 0125.385-16.974z" fill="#CA3232"/><path d="M6.083 6.808c.639.076 1.275.154 1.947.293.67.141 1.371.345 2.06.596a15.27 15.27 0 012.156.97c.791.427 1.697.988 2.5 1.523a30.19 30.19 0 012.118 1.537c.612.493 1.136.964 1.741 1.506.605.542 1.295 1.154 1.88 1.703a63.676 63.676 0 011.607 1.568l1.416 1.416c.293.294.293.294.045.504-.25.21-.747.632-1.239 1.086-.49.453-.975.937-1.217 1.18-.242.243-.242.243-.58-.09l-1.877-1.842c-.86-.85-1.907-1.882-3.412-3.292-1.506-1.41-2.822-2.805-4.912-4.506 1.83 2.216 3.328 3.783 5.057 5.634 1.73 1.85 3.26 3.419 4.026 4.216.765.798.765.824.542 1.085-.222.262-.67.759-1.09 1.263-.422.504-.816 1.015-1.014 1.268-.197.256-.197.256-.663-.217-.466-.472-1.396-1.414-2.348-2.404-.95-.99-1.92-2.021-2.793-3.043a36.875 36.875 0 01-2.284-2.94 25.334 25.334 0 01-1.504-2.458 20.489 20.489 0 01-.994-2.142c-.312-.778-.644-1.696-.843-2.456-.197-.76-.262-1.36-.325-1.958zM72.089 71.51c.726-.72 1.258-1.273 1.595-1.663.338-.39.509-.577.516-.559.004.017.378.385 1.114 1.101.738.718 1.112 1.076 1.124 1.076.013 0-.131.173-.43.518-.3.343-.651.742-1.052 1.195-.403.453-.609.677-.622.67a.151.151 0 01-.038-.028c-.014-.013-.256-.247-.728-.698l-1.058-1.018a9.084 9.084 0 01-.493-.498M68.502 74.563c.758-.596 1.315-1.055 1.67-1.382.357-.326.55-.472.585-.439l1.256 1.222 1.205 1.172-.55.45-1.203.98c-.434.353-.66.525-.671.519a.15.15 0 01-.038-.029c-.012-.013-.256-.245-.728-.7-.473-.452-.824-.79-1.058-1.016a27.291 27.291 0 01-.612-.607M76.983 77.827c.543-.542.952-.945 1.229-1.205.279-.262.48-.458.603-.589l.186-.197.282.34c.188.227.388.46.599.703l.316.363-.727.723c-.485.483-1.082 1.086-1.79 1.809L76.62 80.86l-1.493-1.091M79.348 80.01c1.109-1.123 1.661-1.687 1.654-1.694-.006-.006.18.236.556.727.376.492.56.74.554.746l-.794.784a74.351 74.351 0 00-1.493 1.52l-.708.747-.738-.554c-.49-.37-.742-.556-.756-.556M81.422 82.322c.99-.956 1.484-1.436 1.484-1.439 0-.003.19.229.574.698l.572.703-1.219 1.267-1.22 1.268-.737-.616-.737-.619M21.618 71.494c-.726-.718-1.259-1.274-1.595-1.663-.337-.39-.51-.577-.516-.56-.005.017-.376.384-1.114 1.102-.738.718-1.114 1.076-1.126 1.076-.013 0 .131.172.431.517.299.343.65.743 1.051 1.196.403.452.609.676.624.67a.242.242 0 00.038-.029c.013-.013.255-.247.728-.7.472-.454.824-.792 1.06-1.017a9.78 9.78 0 00.492-.498M25.204 74.548c-.756-.596-1.313-1.055-1.67-1.381-.358-.327-.552-.475-.585-.44l-1.257 1.222-1.205 1.172.549.45 1.203.98c.435.353.659.525.672.519a.244.244 0 00.038-.029c.013-.011.255-.245.728-.698l1.06-1.016c.232-.225.437-.428.611-.607M16.723 77.81a56.926 56.926 0 00-1.23-1.205c-.277-.262-.48-.457-.602-.588l-.187-.198-.282.34c-.188.227-.388.461-.599.703l-.315.364.726.722a190.95 190.95 0 011.791 1.81l1.061 1.085 1.492-1.09" fill="#fff"/><path d="M50.203 37.955c-.014.053.038.169.06.296.024.128.016.269-.012.412-.029.142-.08.29-.133.42-.055.132-.113.246-.141.307-.028.062-.028.068.304-.054.333-.121.994-.37 1.333-.5.338-.13.351-.144.247-.195-.106-.051-.329-.14-.521-.217-.19-.077-.35-.14-.507-.222-.156-.083-.309-.184-.423-.24-.118-.054-.196-.062-.207-.008zm-7.152-1.811c.072.093.289.28.441.433.153.15.242.265.342.394.098.128.207.267.287.387.08.117.13.212.159.273.028.06.035.086.013.118a.502.502 0 01-.162.118c-.09.048-.218.106-.349.182-.13.078-.265.172-.376.262-.113.09-.202.172-.253.262a.581.581 0 00-.067.28.691.691 0 00.025.245c.022.055.061.069.163.074.102.006.268.006.499.006.232 0 .533 0 .835-.011.304-.014.609-.039.833-.069.223-.028.363-.06.517-.11a4.73 4.73 0 00.462-.188c.145-.068.266-.13.364-.214a.702.702 0 00.222-.318.927.927 0 00.038-.47 1.217 1.217 0 00-.207-.487 1.58 1.58 0 00-.393-.385 3.844 3.844 0 00-.569-.333 4.8 4.8 0 00-.633-.247 4.354 4.354 0 00-.634-.154c-.219-.036-.45-.055-.653-.071a21.19 21.19 0 00-.512-.042l-.309-.018c-.076-.005-.152-.01-.083.083zm-15.53 1.426c.92-.19 1.837-.383 2.649-.517a22.275 22.275 0 012.232-.264 45.02 45.02 0 011.82-.078c.386-.012.44-.017.86-.025a34.63 34.63 0 011.896.005c.683.025 1.257.088 1.817.153.562.063 1.111.127 1.66.19.038-.228.076-.459.038-.713a2.09 2.09 0 00-.313-.784 3.438 3.438 0 00-.594-.676 7.366 7.366 0 00-.746-.599 5.1 5.1 0 00-.791-.473c-.262-.12-.516-.197-.778-.306-.262-.108-.529-.247-.784-.363a9.385 9.385 0 00-.713-.282c-.219-.077-.408-.14-.537-.18-.128-.038-.19-.05-.14-.114.052-.064.218-.179.53-.262.311-.083.77-.134 1.288-.12a9.526 9.526 0 011.73.223c.638.133 1.339.325 1.956.504.62.18 1.155.345 1.608.51.453.167.822.332 1.23.48.408.148.854.274 1.27.37.413.096.798.159 1.116.177a2.42 2.42 0 00.778-.063c.204-.058.358-.147.618-.192.262-.045.632-.045.99-.018.357.024.702.076 1.045.147.345.07.688.16 1.034.247.344.09.688.18 1.02.249.332.07.65.12.982.172.333.052.676.103 1.034.135.358.031.727.044 1.11.051.383.007.777.007 1.122 0 .343-.007.638-.02.924.012a2.7 2.7 0 01.842.235c.273.128.542.307.764.466.224.16.403.3.58.49.18.193.359.435.536.64.18.203.358.369.473.497.114.127.165.217.197.255.031.036.045.025.192.006.15-.018.435-.04.703-.036.269.008.52.043.816.124.298.083.642.21.935.337.294.128.536.255.726.356.193.103.334.18.55.211.217.032.508.02.77 0 .262-.018.493-.043.703-.088.21-.045.401-.108.594-.114.19-.007.383.043.58.103.198.058.401.12.58.203.178.083.332.186.523.294.192.108.42.222.613.325.193.103.343.192.473.249.127.056.229.083.408.094.179.013.434.013.72 0 .288-.011.606-.038.861-.05.256-.013.448-.013.639.019.192.031.383.096.433.248.051.153-.039.395-.16.619a3.299 3.299 0 01-.457.632 10.76 10.76 0 01-.632.62c-.229.21-.472.427-.69.668a8.36 8.36 0 00-.562.728 8.121 8.121 0 00-.363.542c-.096.16-.172.312-.282.473-.108.159-.247.324-.37.479a4.96 4.96 0 00-.318.447c-.096.153-.184.319-.262.46-.076.14-.14.255-.217.358-.076.102-.166.19-.21.235-.045.045-.045.045-.059-.127a5.463 5.463 0 00-.102-.805 2.447 2.447 0 00-.28-.714c-.115-.198-.243-.363-.415-.48-.173-.114-.388-.177-.594-.235a4.717 4.717 0 00-.67-.148 6.614 6.614 0 00-.955-.057c-.326.006-.618.044-.931.077-.312.032-.644.059-.984.128-.336.07-.681.184-.956.3-.274.115-.48.229-.682.428-.204.197-.408.48-.555.695-.148.217-.236.37-.28.515a1.126 1.126 0 00-.032.441 3.9 3.9 0 00.071.473c.032.153.07.293.108.383a.46.46 0 00.108.16c.031.03.058.055.19.05.135-.006.377-.044.57-.096.191-.051.33-.114.453-.14.122-.025.223-.014.395.056.173.071.415.197.599.345.185.147.313.313.454.484.14.172.294.351.458.522.167.173.344.338.543.49.198.155.413.294.594.422.18.128.318.242.524.318.202.077.472.115.695.121.224.007.401-.018.587-.076.184-.056.376-.147.535-.222.16-.078.287-.14.413-.199.128-.058.254-.111.318-.131.063-.02.065-.008.027.088-.038.096-.114.277-.154.42-.038.142-.038.243-.038.37v.429c0 .147 0 .286-.025.432-.025.148-.076.3-.148.48-.07.179-.159.383-.247.497a.324.324 0 01-.288.14.999.999 0 01-.364-.075c-.127-.052-.253-.128-.42-.166a1.461 1.461 0 00-.6.006c-.228.045-.483.133-.734.211-.248.076-.49.14-.753.133-.261-.007-.542-.083-.815-.153-.274-.07-.542-.133-.791-.204-.249-.07-.48-.146-.753-.197-.273-.051-.593-.078-.894-.115-.3-.038-.58-.09-.86-.107a3.6 3.6 0 00-.836.038c-.273.045-.542.12-.835.204-.294.083-.612.172-.892.273-.282.103-.524.218-.785.339-.262.12-.542.248-.79.376a9.118 9.118 0 00-.702.401 22.759 22.759 0 00-1.53 1.041c-.3.23-.657.524-1.116.97-.46.446-1.02 1.047-1.614 1.64a31.945 31.945 0 01-1.895 1.755 23.76 23.76 0 01-2.003 1.537c-.598.4-1.07.644-1.62.911-.548.269-1.173.56-1.709.771-.537.211-.983.339-1.353.435-.37.094-.663.159-.809.19-.148.032-.148.032-.018-.12.127-.155.383-.46.593-.83.21-.37.377-.804.485-1.243.107-.44.159-.887.19-1.27.033-.383.045-.702.02-.995a5.316 5.316 0 00-.148-.798c-.058-.235-.107-.439-.134-.542-.025-.102-.025-.102.18-.132.203-.033.611-.096 1.103-.173.491-.076 1.065-.166 1.639-.268.573-.103 1.149-.218 1.703-.383a8.407 8.407 0 001.53-.619c.44-.235.784-.49 1.136-.804a8.995 8.995 0 001.632-1.913c.107-.173.095-.173-.104-.14-.197.032-.578.096-1.033.133-.454.038-.975.051-1.57.063l-1.824.038a38.48 38.48 0 00-1.543.058c-.504.032-1.04.083-1.53.197-.491.115-.938.294-1.314.466-.376.173-.683.337-.932.473l-.535.287c-.096.051-.096.051-.244-.133-.146-.186-.44-.555-.753-.913a14.68 14.68 0 00-.923-.964c-.28-.262-.51-.44-.735-.605a8.245 8.245 0 00-.62-.428c-.177-.108-.318-.172-.376-.21-.058-.038-.032-.052.09-.128.12-.076.336-.217.7-.383a9.538 9.538 0 011.423-.504 13.381 13.381 0 011.806-.333 55.84 55.84 0 012.187-.21c.766-.064 1.544-.127 2.258-.192a24.464 24.464 0 001.952-.228c.587-.103 1.109-.244 1.57-.39a9.029 9.029 0 001.212-.473c.356-.172.675-.363.95-.573a3.81 3.81 0 00.691-.683c.188-.242.335-.498.416-.635.082-.14.095-.163-.134-.103-.229.06-.701.202-1.157.302-.458.1-.9.159-1.35.208-.45.048-.908.088-1.504.1-.593.013-1.32 0-2.008-.007-.69-.006-1.34-.006-2.029-.018-.688-.013-1.414-.038-2.06-.038-.643 0-1.205.026-1.735.078-.53.051-1.027.128-1.526.242-.497.114-.994.268-1.41.421a7.862 7.862 0 00-1.025.46c-.282.152-.511.304-.684.465-.172.16-.286.325-.344.408-.057.083-.057.083-.256-.12a20.95 20.95 0 00-.995-.976c-.402-.363-.81-.683-1.27-1.015-.459-.331-.97-.674-1.404-.95-.433-.275-.79-.479-1.103-.645-.311-.165-.58-.293-.732-.37-.155-.077-.193-.102-.218-.127-.026-.025-.038-.051.153-.148.19-.094.587-.262 1.096-.446a29.79 29.79 0 011.754-.568c.618-.18 1.23-.332 1.76-.435.53-.102.977-.152 1.553-.184a35.859 35.859 0 011.965-.045 89.394 89.394 0 014.03.11c.639.031 1.239.07 1.774.058.536-.013 1.009-.078 1.473-.128.466-.051.925-.09 1.422-.217a6.339 6.339 0 001.405-.549c.37-.204.572-.394.746-.605.172-.21.313-.441.395-.555.083-.115.107-.115-.18-.045-.286.071-.887.21-1.53.306-.643.097-1.333.148-1.97.148-.638 0-1.225-.051-1.799-.14-.573-.089-1.135-.218-1.736-.344a21.552 21.552 0 00-1.862-.332c-.623-.078-1.236-.102-1.886-.134-.65-.032-1.34-.07-1.94-.083-.599-.011-1.111 0-1.589.027-.479.025-.923.063-1.345.114-.42.051-.815.114-1.243.204-.428.09-.887.204-1.333.325-.448.121-.88.249-1.327.421-.447.173-.905.388-1.314.574-.408.184-.765.338-.95.401-.184.065-.198.038-.395-.103a15.99 15.99 0 00-1.013-.65c-.435-.255-.92-.509-1.36-.726-.44-.217-.835-.396-1.154-.517a6.235 6.235 0 00-.683-.217c-.12-.034-.12-.034.09-.155.21-.12.631-.363 1.122-.593.49-.23 1.053-.448 1.582-.625.529-.18 1.026-.319 1.467-.435.44-.114.823-.204 1.013-.248l.2-.045z" fill="#000"/><path d="M40.85 62.6a.248.248 0 01-.228-.123c-.1-.164.01-.295.115-.421.132-.16.371-.448.567-.793.194-.341.353-.749.459-1.18.113-.458.16-.92.184-1.23.035-.417.041-.702.02-.955a5.037 5.037 0 00-.141-.76 30.38 30.38 0 00-.134-.539c-.017-.068-.043-.175.03-.283.076-.115.187-.131.353-.158l.686-.108.416-.064c.523-.081 1.08-.168 1.633-.267.511-.091 1.11-.206 1.677-.377a8.079 8.079 0 001.484-.6c.391-.209.718-.44 1.088-.77a8.984 8.984 0 001.394-1.569c-.197.028-.441.06-.711.083-.45.038-.962.051-1.585.064-.36.009-.745.017-1.12.024l-.704.015a38.83 38.83 0 00-1.534.056c-.428.028-.983.074-1.49.192a6.577 6.577 0 00-1.266.45c-.371.169-.673.333-.917.464l-.537.287c-.278.149-.406-.012-.554-.198-.263-.336-.52-.648-.744-.903-.308-.352-.63-.687-.907-.945a7.7 7.7 0 00-.713-.589 8.84 8.84 0 00-.599-.415c-.096-.058-.18-.102-.245-.137a1.757 1.757 0 01-.14-.08.284.284 0 01-.14-.243c.002-.155.114-.226.215-.289l.045-.028c.131-.083.35-.22.706-.383a9.8 9.8 0 011.461-.518c.526-.14 1.11-.248 1.839-.34a59.404 59.404 0 012.197-.21l.711-.06 1.546-.13c.65-.059 1.333-.123 1.93-.228a11.41 11.41 0 001.536-.381 8.864 8.864 0 001.18-.46 5.19 5.19 0 00.906-.547 3.573 3.573 0 00.821-.882 14.68 14.68 0 01-.8.203c-.495.109-.974.169-1.377.212-.413.045-.884.088-1.525.101a44.82 44.82 0 01-1.562-.002l-.453-.005-.685-.005c-.447-.003-.888-.005-1.346-.013-.237-.005-.48-.01-.723-.017-.45-.011-.913-.021-1.331-.021-.62 0-1.18.025-1.712.076a11.261 11.261 0 00-2.87.648c-.374.14-.7.284-.993.445a3.03 3.03 0 00-.631.43c-.151.139-.254.284-.309.362-.035.05-.103.151-.239.163-.149.011-.228-.07-.4-.247a21.29 21.29 0 00-.982-.965 14.278 14.278 0 00-1.249-.998 28.285 28.285 0 00-1.391-.94 16.402 16.402 0 00-1.683-.939l-.13-.065c-.167-.084-.231-.12-.288-.179a.268.268 0 01-.08-.237c.026-.166.186-.245.302-.305.183-.09.574-.258 1.123-.457.527-.191 1.156-.395 1.769-.574a21.017 21.017 0 011.782-.44c.526-.1.985-.155 1.586-.188.522-.03 1.205-.045 1.978-.045.621 0 1.291.01 2.047.031.756.023 1.41.048 1.995.078l.307.015c.519.027 1.008.051 1.447.042.425-.01.813-.055 1.187-.097l.433-.048c.411-.043.8-.084 1.219-.194a6.14 6.14 0 001.346-.525c.361-.2.539-.38.675-.546.03-.036.058-.074.086-.11-.318.07-.736.155-1.172.22-.657.097-1.351.149-2.006.149-.619 0-1.219-.047-1.837-.144-.476-.073-.937-.173-1.425-.277l-.323-.07a21.197 21.197 0 00-1.84-.328c-.553-.068-1.096-.095-1.674-.123l-.475-.023c-.562-.028-1.143-.058-1.655-.07a19.717 19.717 0 00-1.569.027c-.46.023-.908.061-1.328.113a13.8 13.8 0 00-1.222.2c-.388.081-.83.19-1.32.322a13.14 13.14 0 00-1.301.413c-.365.14-.733.308-1.088.47l-.212.098c-.47.213-.797.35-.973.41-.264.093-.375.041-.579-.106l-.041-.03a15.222 15.222 0 00-.995-.638c-.488-.286-1-.55-1.343-.718a13.49 13.49 0 00-1.133-.508 6.073 6.073 0 00-.655-.207c-.08-.022-.243-.066-.267-.244-.023-.184.11-.26.296-.366l.015-.008c.222-.128.636-.367 1.125-.594a15.495 15.495 0 011.609-.635 22.15 22.15 0 011.484-.44c.442-.115.832-.207 1.02-.25l.314-.071c.866-.18 1.76-.365 2.542-.494.78-.13 1.496-.216 2.257-.267.675-.047 1.351-.065 1.754-.076l.401-.014c.15-.005.27-.01.537-.015.78-.016 1.403-.014 1.91.005.674.025 1.23.085 1.838.155.457.051.907.102 1.354.155l.067.009c.016-.135.023-.266.001-.402a1.853 1.853 0 00-.277-.688 3.216 3.216 0 00-.55-.626 7.055 7.055 0 00-.721-.579 4.757 4.757 0 00-.753-.45c-.146-.066-.289-.119-.44-.175a8.764 8.764 0 01-.328-.126 10.669 10.669 0 01-.486-.222 8.278 8.278 0 00-1.001-.418 13.367 13.367 0 00-.526-.174l-.028-.009c-.11-.033-.247-.074-.293-.225a.291.291 0 01.06-.275c.109-.138.35-.266.66-.347.356-.094.852-.14 1.357-.13a9.79 9.79 0 011.774.23c.7.146 1.463.36 1.975.507a24.9 24.9 0 011.625.516c.225.083.43.164.628.245a10.782 10.782 0 001.844.595c.42.098.781.156 1.075.173.275.016.509-.002.696-.055.07-.02.133-.043.197-.068a2.23 2.23 0 01.448-.13c.351-.059.807-.039 1.05-.02.35.024.702.074 1.077.15.32.065.644.148.957.227l.09.023c.338.088.684.18 1.01.248.33.07.646.119.967.169.322.05.667.1 1.018.132.312.027.659.043 1.091.05.378.007.775.007 1.115 0l.16-.003c.277-.007.54-.012.796.016.32.037.63.123.919.257.313.146.608.35.804.49.23.164.423.315.617.523.108.117.215.247.318.375.075.093.15.184.222.269.1.112.2.215.289.305a8.1 8.1 0 01.182.19c.067.075.115.138.15.186l.028-.003c.17-.022.467-.043.738-.038.298.008.568.05.875.132.292.082.645.208.97.35.305.133.559.267.743.365l.015.008c.177.095.285.153.452.176.21.032.51.013.717-.002.288-.02.494-.046.67-.084l.172-.04c.15-.036.302-.075.464-.08.229-.01.441.049.658.113.204.06.421.126.614.216.134.063.249.13.371.204.055.031.111.066.171.1.123.069.262.14.396.21.073.038.145.074.21.11l.177.097c.11.06.204.111.282.146a.79.79 0 00.323.073c.17.013.416.013.691 0 .158-.007.324-.018.483-.028.132-.009.262-.017.378-.022.257-.013.472-.015.691.022.126.02.517.084.627.416.068.202.008.477-.178.816a3.415 3.415 0 01-.492.678c-.2.222-.44.444-.648.635l-.08.073c-.2.184-.41.374-.593.58a8.132 8.132 0 00-.544.705c-.158.222-.266.38-.352.525-.035.057-.064.111-.096.164-.058.103-.12.21-.194.32-.091.135-.199.267-.303.397l-.078.098a4.912 4.912 0 00-.522.805l-.035.065a2.76 2.76 0 01-.237.388c-.083.111-.178.206-.23.257-.12.121-.23.113-.301.086-.16-.06-.173-.202-.184-.366a5.664 5.664 0 00-.096-.766 2.207 2.207 0 00-.254-.645c-.113-.194-.217-.315-.337-.397-.145-.097-.354-.155-.522-.203a4.394 4.394 0 00-.637-.141 6.228 6.228 0 00-.916-.055c-.252.005-.486.03-.732.056l-.311.032c-.269.026-.547.053-.826.11a5.195 5.195 0 00-.91.286c-.237.1-.42.197-.604.377-.149.144-.325.364-.524.656-.146.214-.215.34-.248.45a.888.888 0 00-.022.348c.013.14.036.298.066.44.03.143.065.268.093.336a.238.238 0 00.035.06h.023c.11-.004.334-.039.516-.087.088-.023.164-.05.232-.073.08-.028.156-.053.232-.07.176-.036.327-.016.54.07.09.037.4.172.66.381.188.15.32.312.45.471l.041.052c.16.195.305.363.445.507.177.182.346.335.515.466.131.101.269.197.405.29.063.043.124.085.18.126l.082.058c.136.1.244.178.386.23.156.059.392.099.615.105.191.005.342-.015.506-.065.163-.05.338-.13.502-.21l.14-.068.277-.133a3.94 3.94 0 01.35-.142c.157-.05.252.008.305.064.116.126.058.274.026.354l-.028.07c-.038.095-.09.223-.116.32-.03.11-.03.185-.03.308v.427c0 .151 0 .307-.028.474-.025.151-.077.314-.161.53-.105.265-.194.442-.282.557a.571.571 0 01-.486.237c-.144 0-.302-.033-.456-.093-.044-.018-.088-.038-.132-.058a1.362 1.362 0 00-.252-.096 1.225 1.225 0 00-.496.008 5.265 5.265 0 00-.55.154l-.158.05c-.242.074-.524.15-.833.144-.278-.007-.56-.08-.832-.15l-.262-.067c-.199-.05-.391-.098-.573-.15l-.178-.05a6.116 6.116 0 00-.552-.142c-.18-.033-.39-.056-.592-.08a14.76 14.76 0 01-.575-.072 7.073 7.073 0 00-.559-.067 3.381 3.381 0 00-.78.035c-.241.04-.49.11-.752.183l-.14.04c-.268.076-.545.155-.79.245a8.358 8.358 0 00-.727.312l-.145.068c-.23.104-.465.213-.675.323-.216.11-.421.227-.683.391-.23.143-.483.305-.733.474-.262.175-.494.335-.778.553a11.84 11.84 0 00-1.094.95c-.25.243-.536.537-.837.847-.248.255-.508.522-.775.79a32.087 32.087 0 01-1.91 1.767 23.943 23.943 0 01-2.026 1.553c-.632.423-1.12.672-1.648.929-.713.348-1.278.601-1.728.779-.572.224-1.038.355-1.38.444-.377.096-.676.163-.822.194a.366.366 0 01-.15.032zm1.367-5.96c.027.105.058.238.095.382.053.217.124.512.152.834.024.284.019.594-.02 1.038a8.243 8.243 0 01-.197 1.308 5.148 5.148 0 01-.51 1.307c-.097.167-.201.325-.3.46l.256-.066c.329-.084.778-.21 1.324-.424.436-.172.99-.421 1.69-.763.513-.25.986-.49 1.59-.895.576-.386 1.3-.94 1.982-1.52a31.65 31.65 0 001.88-1.742c.266-.265.523-.53.768-.784.303-.313.59-.608.847-.859.518-.502.897-.804 1.14-.988.295-.225.535-.391.804-.57.255-.171.514-.338.746-.483.275-.172.49-.295.72-.41.218-.114.46-.225.692-.333l.145-.066c.252-.117.489-.229.766-.328.262-.096.547-.178.824-.255l.14-.04c.278-.078.538-.151.808-.194a3.82 3.82 0 01.894-.04c.199.013.391.041.595.071l.279.04c.09.012.185.022.278.032.212.023.431.048.629.084.22.042.412.098.6.153l.174.05c.179.05.366.097.559.145l.267.068c.245.063.499.13.72.135.233.006.46-.058.672-.123l.154-.048c.203-.065.41-.131.606-.17.257-.05.499-.05.703-.004.139.031.252.083.35.129.036.017.07.033.107.048.095.038.191.058.27.058.049 0 .059-.002.092-.045.038-.05.108-.167.212-.436.073-.182.115-.315.133-.43.021-.125.021-.248.021-.39v-.428c0-.135 0-.262.048-.436a.047.047 0 00.004-.015l-.12.058-.14.07a4.647 4.647 0 01-.571.237 1.992 1.992 0 01-.667.088 2.594 2.594 0 01-.775-.136 2.043 2.043 0 01-.503-.294l-.078-.056-.174-.121a8.559 8.559 0 01-.426-.307 5.417 5.417 0 01-.569-.514 8.393 8.393 0 01-.472-.539l-.042-.051c-.12-.15-.227-.28-.373-.395a2.399 2.399 0 00-.54-.31c-.145-.058-.194-.055-.25-.043-.045.01-.103.03-.172.053a4.81 4.81 0 01-.267.085c-.198.053-.459.096-.62.104-.175.008-.28-.027-.378-.123-.041-.043-.107-.108-.162-.24a2.363 2.363 0 01-.123-.43 4.266 4.266 0 01-.074-.499 1.39 1.39 0 01.041-.535c.056-.186.166-.367.312-.584.22-.325.413-.565.588-.734.24-.233.476-.36.758-.478a5.647 5.647 0 011.003-.315 7.92 7.92 0 01.879-.118l.307-.031c.247-.027.5-.055.776-.06.316-.007.688.017.995.06.285.04.487.093.703.154.19.053.452.128.663.267.187.124.338.297.492.56.146.254.247.511.309.786.028.125.048.257.064.383l.062-.11.034-.065a5.115 5.115 0 01.569-.877l.081-.102a3.353 3.353 0 00.451-.65l.102-.174a8.59 8.59 0 01.373-.557c.164-.232.358-.502.578-.75.2-.223.42-.422.629-.614l.078-.072c.198-.184.427-.398.615-.603.184-.204.318-.39.422-.582.143-.259.151-.393.143-.421 0 0-.036-.05-.237-.083a2.654 2.654 0 00-.585-.017c-.115.005-.24.013-.372.022-.162.01-.333.021-.492.028a7.048 7.048 0 01-.751 0 1.287 1.287 0 01-.491-.116 4.595 4.595 0 01-.317-.164l-.17-.093a11.473 11.473 0 00-.208-.108c-.139-.073-.283-.148-.41-.22a37.049 37.049 0 01-.18-.105 3.43 3.43 0 00-.327-.18 3.962 3.962 0 00-.543-.19c-.178-.051-.345-.1-.501-.093a1.845 1.845 0 00-.363.065c-.062.015-.123.03-.188.043a5.324 5.324 0 01-.736.093c-.23.017-.569.037-.826-.002-.253-.036-.42-.126-.615-.228l-.015-.009a9.57 9.57 0 00-.708-.348 6.832 6.832 0 00-.903-.325 3.147 3.147 0 00-.758-.116 4.99 4.99 0 00-.665.035l-.071.01c-.095.013-.226.031-.34-.101a.878.878 0 01-.053-.072c-.032-.044-.073-.104-.141-.179-.047-.051-.105-.11-.167-.174-.093-.094-.2-.202-.307-.325-.08-.09-.158-.187-.236-.283a6.59 6.59 0 00-.295-.348 3.367 3.367 0 00-.544-.458 4.755 4.755 0 00-.726-.443 2.43 2.43 0 00-.764-.214c-.224-.025-.458-.02-.73-.015l-.162.004c-.347.006-.748.006-1.131 0a15.626 15.626 0 01-1.128-.052c-.368-.033-.72-.086-1.05-.136-.33-.051-.652-.102-.994-.174-.337-.071-.69-.162-1.03-.252l-.09-.023c-.306-.078-.623-.16-.931-.222a7.612 7.612 0 00-1.013-.143c-.373-.026-.711-.021-.93.015a1.81 1.81 0 00-.357.106c-.078.03-.152.058-.237.082a2.606 2.606 0 01-.859.072 7.136 7.136 0 01-1.157-.184 11.442 11.442 0 01-1.917-.618c-.194-.078-.394-.16-.613-.239-.406-.149-.897-.305-1.592-.505a27.726 27.726 0 00-1.938-.5 9.421 9.421 0 00-1.685-.218c-.46-.012-.905.03-1.218.112a1.07 1.07 0 00-.037.01l.202.07c.218.078.47.17.735.29l.317.148c.152.073.31.149.46.21.105.043.208.081.312.12.154.056.314.116.476.19.257.118.527.28.83.496.278.196.536.403.772.618.28.256.48.486.633.727.184.287.309.6.35.882.043.29.003.54-.037.782l-.038.234-.237-.02-.305-.035c-.447-.05-.895-.102-1.353-.155a21.911 21.911 0 00-1.799-.153 34.45 34.45 0 00-1.88-.005c-.264.005-.383.01-.53.015l-.405.013c-.401.012-1.071.03-1.734.077-.743.051-1.446.134-2.209.262-.773.127-1.661.313-2.522.49l-.302.068c-.185.043-.57.135-1.008.247-.525.138-1.001.277-1.45.43a14.95 14.95 0 00-1.556.615c-.308.144-.587.293-.804.413.085.028.17.06.257.091.322.121.716.298 1.177.527.352.173.876.441 1.375.735.416.245.806.502 1.031.661l.045.032.078.055c.01-.004.025-.009.048-.015.111-.038.361-.138.93-.393l.21-.096c.347-.16.738-.339 1.116-.485.488-.187.957-.321 1.352-.43.497-.133.95-.244 1.346-.327.418-.088.82-.155 1.265-.208.431-.053.89-.09 1.363-.116.54-.03 1.051-.038 1.607-.026.519.011 1.104.041 1.67.07l.474.023c.585.028 1.139.056 1.708.126a21.52 21.52 0 011.883.335l.325.07c.48.102.933.2 1.396.271a11.26 11.26 0 001.76.138c.633 0 1.302-.05 1.934-.145a16.901 16.901 0 001.51-.301l.049-.012c.194-.048.346-.084.45.073.102.154-.004.297-.04.345l-.02.026c-.024.032-.052.075-.084.123-.08.121-.192.287-.32.444-.159.194-.38.425-.819.665a6.692 6.692 0 01-1.462.572c-.454.118-.879.163-1.29.206l-.43.048c-.386.043-.785.09-1.231.1-.458.011-.957-.015-1.486-.042l-.307-.015a88.624 88.624 0 00-4.017-.108c-.763 0-1.438.015-1.95.045-.577.032-1.016.083-1.519.181-.495.096-1.096.244-1.737.428-.604.175-1.22.374-1.738.562-.365.133-.658.25-.859.338.154.076.36.178.59.298.373.2.73.408 1.12.655.442.28.96.629 1.415.959.523.378.92.696 1.29 1.033.423.381.846.82.997.978.068-.086.154-.187.262-.287.177-.166.418-.33.733-.5a7.951 7.951 0 011.06-.475c.457-.169.968-.321 1.438-.43.486-.112.995-.192 1.557-.246a18.149 18.149 0 011.76-.078c.424 0 .892.011 1.344.023.24.007.483.012.72.017.456.008.895.011 1.341.013l.687.005.454.005c.534.007 1.086.011 1.547.002a16.432 16.432 0 001.482-.098c.39-.042.85-.1 1.322-.204.321-.07.655-.163.898-.23.098-.029.184-.052.25-.069.145-.038.327-.086.444.068.112.15.024.299-.032.4l-.012.02c-.087.149-.233.4-.422.643a4.08 4.08 0 01-.737.726 5.771 5.771 0 01-.994.6 9.373 9.373 0 01-1.244.486c-.55.176-1.074.307-1.603.398-.615.108-1.312.174-1.972.232l-1.548.133-.712.06c-.701.058-1.494.124-2.178.209-.705.088-1.269.19-1.771.326a9.33 9.33 0 00-1.385.49c-.195.089-.348.17-.462.238l.074.043c.166.1.368.24.639.441.209.156.456.343.756.624.288.268.622.616.942.98.23.263.492.582.76.923l.017.022.45-.24c.248-.135.56-.304.945-.48.499-.229.931-.381 1.36-.482.541-.126 1.123-.176 1.571-.204.496-.032.962-.045 1.554-.058l.706-.015c.373-.009.76-.015 1.117-.023.616-.014 1.12-.025 1.556-.063.4-.034.744-.088.95-.122l.065-.01c.145-.023.311-.05.412.103.103.154.009.305-.061.415a9.16 9.16 0 01-1.678 1.966 5.88 5.88 0 01-1.184.838 8.596 8.596 0 01-1.577.638c-.59.177-1.207.295-1.73.388-.56.1-1.118.187-1.644.268l-.416.065c-.264.032-.48.066-.627.09zm7.745-16.958a.225.225 0 01-.179-.086c-.045-.048-.108-.153-.032-.313l.024-.05c.03-.061.071-.15.113-.247.058-.143.096-.265.117-.373a.883.883 0 00.014-.319c-.009-.044-.02-.086-.03-.122a.534.534 0 01-.028-.274.294.294 0 01.155-.197c.14-.068.292-.014.395.035.073.034.15.08.232.129.065.038.133.08.202.116.146.078.295.136.483.212l.068.028c.18.073.368.148.469.198.138.066.204.16.199.28-.008.196-.16.254-.464.371-.352.135-1.012.383-1.338.501-.186.068-.307.111-.4.111zm.559-1.371c.01.124 0 .259-.028.401a2.38 2.38 0 01-.088.312c.272-.101.63-.236.91-.342l-.003-.001-.067-.027a5.075 5.075 0 01-.53-.234 4.241 4.241 0 01-.194-.109zm-6.745 1.114c-.236 0-.405 0-.516-.006-.086-.005-.292-.017-.378-.228-.011-.028-.051-.122-.043-.348a.829.829 0 01.098-.394 1.25 1.25 0 01.313-.334c.126-.1.27-.2.405-.282.088-.05.172-.094.247-.13.038-.02.075-.037.106-.055a2.376 2.376 0 00-.095-.153 7.11 7.11 0 00-.276-.373c-.096-.124-.178-.23-.32-.37-.055-.054-.118-.112-.18-.17-.12-.115-.227-.213-.285-.287l-.001-.002c-.115-.15-.078-.273-.047-.333.085-.163.26-.154.347-.151l.103.005.21.012c.135.008.31.023.517.041.211.017.447.037.672.073.219.035.438.088.668.162.229.072.455.16.665.26.226.108.434.231.607.357.196.141.338.282.45.445.129.185.215.39.248.588.035.2.017.413-.05.595a.957.957 0 01-.298.427c-.116.097-.25.17-.418.248-.12.057-.303.138-.49.2a2.757 2.757 0 01-.563.12c-.244.032-.562.057-.854.07-.305.013-.603.013-.842.013zm-.441-.5c.098.003.245.003.44.003.235 0 .528 0 .825-.012.277-.011.58-.036.81-.066.201-.025.327-.053.47-.1.162-.054.327-.126.434-.177.131-.061.233-.114.309-.18a.453.453 0 00.149-.211.687.687 0 00.028-.345.976.976 0 00-.166-.388 1.387 1.387 0 00-.333-.325 3.45 3.45 0 00-.53-.31 4.666 4.666 0 00-1.2-.382c-.206-.034-.43-.051-.628-.068a15.219 15.219 0 00-.341-.028l.063.062c.164.162.26.286.363.417.104.135.214.277.297.4.09.133.147.24.177.307.027.055.1.207-.008.364a.685.685 0 01-.25.196l-.122.063a2.926 2.926 0 00-.564.356.855.855 0 00-.193.193.33.33 0 00-.033.162.516.516 0 01.003.068zM14.359 79.993c-1.11-1.123-1.662-1.686-1.655-1.693.007-.007-.18.235-.555.726-.377.493-.56.74-.554.746.006.008.27.269.794.784a70.166 70.166 0 011.492 1.52l.71.747.736-.554c.49-.37.745-.555.756-.555M12.284 82.307c-.99-.956-1.483-1.436-1.483-1.439 0-.003-.191.229-.574.698l-.574.703 1.22 1.267 1.22 1.268.737-.616.736-.619M14.029 63.203c.263.168.514.445.75.831.303.496.394.98.274 1.454-.119.473-.426.86-.92 1.162-.52.319-1.046.415-1.575.292-.529-.122-.952-.442-1.265-.956-.197-.322-.318-.617-.368-.886l.678-.414c.005.301.095.593.267.877.197.321.456.515.78.583.323.068.65 0 .982-.202.324-.197.528-.448.614-.751.085-.303.033-.61-.158-.922a1.816 1.816 0 00-.7-.671l.64-.397zM12.459 59.637l.351.746-2.838 1.335.7 1.487 2.838-1.335.35.745-3.492 1.643-1.401-2.978 3.492-1.643zM11.422 56.722l.76 2.154-3.64 1.283-.73-2.07.636-.223.456 1.295.857-.302-.425-1.203.632-.223.425 1.204.882-.31-.486-1.38.633-.225zM11.373 52.239l.169.708-1.02.243.723 3.028-3.754.897-.19-.8 3.067-.732-.382-1.597-3.069.73-.192-.803 3.067-.733-.127-.535 1.708-.406zM9.907 48.544l.084.775-2.182.24a6.173 6.173 0 01-.615.04l.002.017c.061.02.17.07.332.149l2.66 1.354.092.834-3.837.423-.084-.774 2.187-.24c.263-.029.44-.042.532-.037l-.002-.01-2.91-1.462-.098-.887 3.839-.422zM9.9 44.394l-.006.897-.887.284-.009 1.403.882.29-.006.892-3.85-1.438.006-.966 3.87-1.362zm-1.528 1.372l-1.342.429a1.507 1.507 0 01-.336.058v.022c.112.01.222.033.326.07l1.345.449.007-1.028zM10.306 40.934l-.096.817-3.147-.373-.094.8c1.4.368 2.27.66 2.603.872.335.214.48.51.434.888-.02.165-.061.312-.127.446l-.659-.078c.05-.099.08-.187.09-.265a.285.285 0 00-.03-.164.553.553 0 00-.184-.179c-.096-.066-.298-.156-.605-.269a14.16 14.16 0 00-1.093-.343l-1.192-.33.269-2.278 3.832.456zM10.457 40.14l-3.763-.852.182-.803 1.43.325.13-.57c.202-.894.672-1.259 1.405-1.091.384.088.66.277.822.567.162.29.196.655.096 1.092l-.302 1.332zM8.92 38.948l1.103.25.093-.411c.1-.44-.038-.701-.413-.786-.362-.081-.59.093-.688.524l-.095.423zM12.278 33.804l-.267.778-1.506-.516-.533 1.556 1.505.515-.267.778-3.65-1.25.268-.778 1.472.504.534-1.555-1.472-.504.267-.778 3.649 1.25zM14.029 30.039l-.385.81-.923-.119-.602 1.267.676.637-.383.806-2.878-2.935.414-.872 4.08.406zm-1.965.593l-1.396-.179a1.507 1.507 0 01-.33-.09l-.01.02c.098.057.186.123.265.2l1.028.976.443-.927z" fill="#fff"/><path d="M15.596 27.489l-.43.704-1.293-.789-.141.23c-.113.183-.066.419.14.707l.654.899-.496.812-.71-1.072c-.195-.292-.261-.561-.202-.806l-.011-.007c-.408.413-.836.482-1.285.207-.292-.177-.456-.424-.494-.74-.038-.314.06-.66.29-1.039l.681-1.116 3.297 2.01zm-2.254-.41l-.928-.567-.206.337c-.219.36-.179.632.123.817.143.088.288.11.434.065a.657.657 0 00.37-.312l.207-.34zM81.87 31.954l-.344-.75 2.85-1.308-.686-1.494-2.85 1.309-.343-.748 3.507-1.61 1.372 2.991-3.506 1.61zM83.868 31.883c.575-.186 1.097-.168 1.567.051.469.22.792.605.97 1.157.169.526.129 1.003-.117 1.436-.247.433-.643.738-1.192.914-.572.184-1.09.167-1.553-.052-.465-.218-.783-.596-.955-1.135-.17-.527-.135-1.01.106-1.45.239-.439.63-.747 1.174-.921zm.308.809c-.358.114-.622.295-.794.54a.889.889 0 00-.113.82c.1.306.284.51.557.611.272.101.592.093.959-.025.383-.122.658-.303.827-.54.169-.237.204-.508.108-.81a.91.91 0 00-.574-.614c-.285-.105-.609-.098-.97.018zM83.005 40.287l-.137-.71 1.03-.2-.471-2.436-1.03.2-.136-.705 1.693-.329.066.345c.995.324 2.091.398 3.286.223l.417 2.147-3.126.605.103.534-1.695.326zm1.433-1.67l2.449-.473-.133-.684c-.802.105-1.66.045-2.575-.177l.259 1.335zM87.434 42.62l-.132-1.439-3.16.29-.075-.819 3.843-.351.207 2.258-.683.061zM86.199 43.13c.605.006 1.094.188 1.469.546.375.359.559.826.552 1.407-.007.552-.196.993-.567 1.324-.371.332-.844.494-1.421.488-.602-.007-1.088-.188-1.457-.543-.37-.354-.553-.814-.546-1.38.007-.554.194-1 .56-1.342.369-.34.838-.507 1.41-.5zm.035.865c-.375-.005-.683.083-.924.26a.882.882 0 00-.366.741c-.004.322.108.574.333.756.225.183.532.276.917.28.401.006.721-.077.957-.25.235-.172.354-.416.358-.733.003-.321-.113-.577-.35-.766-.237-.187-.546-.283-.925-.288zM87.088 50.43l.12-1.095-3.166-.351.09-.82 3.168.352.12-1.092.669.074-.333 3.006-.668-.074zM85.743 50.682c.59.129 1.033.406 1.328.832.295.426.381.922.257 1.489-.118.539-.393.934-.822 1.184-.431.25-.927.313-1.491.19-.587-.129-1.026-.402-1.318-.825-.292-.421-.377-.909-.255-1.463.117-.54.39-.94.82-1.2.43-.26.922-.33 1.48-.207zm-.141.854c-.367-.08-.687-.058-.957.068a.886.886 0 00-.509.651c-.07.315-.011.584.174.808.184.223.466.378.843.459.393.086.72.068.986-.051.266-.121.433-.335.5-.645a.91.91 0 00-.188-.821c-.194-.232-.478-.388-.849-.47zM82.922 54.49l3.658 1.23-.436 1.299c-.134.398-.313.68-.537.844a.767.767 0 01-.736.112.796.796 0 01-.454-.376 1.096 1.096 0 01-.14-.61l-.01-.003c-.117.243-.28.418-.49.522a.848.848 0 01-.672.036c-.332-.11-.557-.318-.673-.62-.116-.301-.106-.658.031-1.068l.46-1.366zm1.324 1.312l-1.003-.338-.156.462c-.067.197-.073.367-.019.508a.49.49 0 00.325.293.453.453 0 00.415-.045c.123-.081.217-.224.285-.428l.153-.452zm1.492.502L84.833 56l-.125.371c-.06.178-.064.332-.013.463.05.131.153.222.305.274.28.094.49-.063.627-.473l.11-.33zM80.508 60.564l.428-.95 2.018-.372c.052-.01.128-.013.226-.01l.004-.011-1.72-.778.338-.75 3.516 1.589-.338.75-1.661-.752-.005.012c.058.066.106.128.142.186l1.019 1.673-.405.895-1.11-2.016-2.452.534z" fill="#fff"/><path d="M78.666 63.712l.453-.774.91.197.708-1.21-.62-.691.45-.771 2.62 3.166-.488.834-4.033-.75zm2.008-.426l1.376.297a1.5 1.5 0 01.32.118l.012-.02a1.39 1.39 0 01-.249-.222l-.941-1.062-.518.89zM36.963 11.485l-1.021-3.722 2.35-.645.178.653-1.557.428.236.857.716-.197c.375-.103.7-.096.977.022.276.117.459.341.55.674.101.372.065.692-.113.96-.177.269-.47.46-.88.572l-1.436.398zm.346-1.843l.286 1.038.504-.14c.408-.112.564-.346.466-.701-.093-.337-.335-.451-.728-.343l-.528.146zM39.712 8.794c-.096-.597 0-1.11.288-1.542.289-.43.718-.691 1.292-.782.544-.088 1.012.023 1.403.333s.63.748.721 1.318c.095.594 0 1.103-.287 1.529-.287.426-.708.683-1.268.772-.546.088-1.018-.02-1.418-.325-.396-.305-.641-.739-.731-1.303zm.846-.18c.06.37.197.658.413.865.217.207.48.285.792.236.318-.052.547-.204.688-.458.141-.254.18-.57.12-.952-.063-.396-.201-.696-.41-.898-.209-.203-.47-.279-.784-.23-.319.052-.55.21-.695.475-.14.265-.184.585-.124.962zM46.566 9.902l-2.281.134-.226-3.853 2.192-.128.04.672-1.371.08.053.908 1.273-.075.04.67-1.273.075.055.933 1.46-.084.038.668zM47.123 9.894l.122-3.857 1.37.043c.419.013.74.103.962.27.223.166.33.392.32.674a.801.801 0 01-.228.543 1.096 1.096 0 01-.544.31v.01c.268.042.482.148.642.32a.85.85 0 01.227.634c-.012.35-.145.625-.4.824-.255.199-.599.292-1.031.278l-1.44-.05zm.874-1.645l-.033 1.058.488.015c.207.006.371-.037.49-.13a.491.491 0 00.188-.396.452.452 0 00-.163-.385c-.112-.093-.277-.142-.49-.15l-.48-.012zm.05-1.574l-.03.954.391.011c.188.007.337-.035.448-.12a.462.462 0 00.174-.372c.01-.295-.202-.45-.633-.463l-.35-.01zM53.839 10.484l-.89-.121-.166-.915-1.39-.19-.4.84-.883-.121 1.918-3.635.958.131.853 4.01zm-1.163-1.691l-.255-1.385a1.442 1.442 0 01-.013-.341l-.022-.004a1.37 1.37 0 01-.11.315l-.62 1.277 1.02.138zM56.755 11.205l-.8-.196.36-1.47-.263-.065c-.21-.051-.42.065-.632.348l-.658.896-.925-.226.807-1.003c.22-.274.455-.418.707-.436l.003-.012c-.517-.263-.713-.65-.588-1.162.08-.332.266-.564.555-.696.288-.131.648-.145 1.08-.038l1.27.31-.916 3.75zm-.293-2.271l.258-1.058-.383-.093c-.41-.1-.656.021-.74.365a.52.52 0 00.069.434c.086.126.222.212.41.259l.386.093zM68.187 80.268c.115-.045.57-.31 1.37-.8a23.924 23.924 0 002.268-1.573 30.593 30.593 0 001.894-1.608c.549-.509 1.129-1.11 1.74-1.799a36.991 36.991 0 001.531-1.817c.408-.524.83-1.111 1.264-1.761.432-.65.727-1.104.878-1.358l.23-.383.765.824c.51.549.753.822.728.822-.027 0-.287.39-.784 1.168a28.443 28.443 0 01-1.703 2.372 29.904 29.904 0 01-2.124 2.393 35.011 35.011 0 01-2.545 2.334c-.919.765-1.736 1.367-2.45 1.8-.712.432-1.148.707-1.3.822l-.23.172-1.032-1.033M80.916 87.207c.153.153.3.287.44.401.14.116.282.227.42.335.142.108.332.21.575.307.242.096.547.169.918.22.37.052.711.058 1.025.019.313-.038.603-.115.87-.23.269-.114.532-.264.794-.448.262-.186.505-.394.728-.624a2.65 2.65 0 00.536-.794c.134-.3.222-.605.269-.919.044-.311.054-.638.028-.976a3.52 3.52 0 00-.24-1.023 7.403 7.403 0 00-.382-.853 1.692 1.692 0 00-.411-.517l-.23-.182-2.737 2.68-2.603 2.604zM87.539 6.937c-.639.078-1.276.153-1.945.294-.67.14-1.371.345-2.061.593-.688.25-1.365.543-2.156.97-.79.428-1.696.99-2.5 1.526a29.655 29.655 0 00-2.117 1.537c-.612.49-1.135.963-1.741 1.504-.606.543-1.295 1.154-1.88 1.702-.588.55-1.072 1.035-1.607 1.57-.536.536-1.124 1.123-1.416 1.417-.294.293-.294.293-.045.504.249.21.746.631 1.237 1.084.492.454.976.938 1.219 1.18.243.243.243.243.58-.089.338-.332 1.015-.995 1.875-1.844.862-.849 1.907-1.882 3.414-3.291 1.506-1.41 2.822-2.805 4.911-4.505-1.83 2.217-3.33 3.785-5.057 5.634-1.73 1.849-3.26 3.419-4.026 4.216-.764.798-.764.823-.542 1.085.222.262.67.76 1.091 1.263.42.504.816 1.015 1.015 1.27.197.256.197.256.663-.217a267.78 267.78 0 002.346-2.404 72.32 72.32 0 002.794-3.043 36.864 36.864 0 002.283-2.94 24.993 24.993 0 001.506-2.455c.388-.728.683-1.364.995-2.142.311-.778.645-1.696.842-2.457.194-.761.259-1.36.322-1.962zM25.348 80.251c-.114-.044-.57-.31-1.368-.799a23.469 23.469 0 01-2.266-1.573 30.16 30.16 0 01-1.895-1.609 26.317 26.317 0 01-1.741-1.798 37.967 37.967 0 01-1.53-1.818c-.408-.524-.83-1.109-1.262-1.76a39.552 39.552 0 01-.88-1.359l-.23-.383-.766.825c-.509.547-.752.822-.726.822.025 0 .287.39.784 1.167.498.778 1.065 1.57 1.703 2.373a30.173 30.173 0 002.123 2.392c.777.791 1.626 1.569 2.545 2.335.92.764 1.736 1.364 2.449 1.799.714.434 1.149.708 1.301.822l.229.173 1.035-1.033M12.621 87.19a5.47 5.47 0 01-.44.402c-.14.116-.281.227-.422.335-.14.107-.332.21-.574.306-.242.096-.549.17-.92.22-.37.052-.711.059-1.023.02a3.189 3.189 0 01-.87-.23 4.351 4.351 0 01-.795-.45 5.114 5.114 0 01-.726-.623 2.707 2.707 0 01-.537-.794 3.546 3.546 0 01-.269-.918 4.641 4.641 0 01-.028-.977 3.63 3.63 0 01.239-1.023 7.69 7.69 0 01.383-.852 1.69 1.69 0 01.411-.517l.229-.183 2.737 2.68 2.605 2.604z" fill="#fff"/><path d="M47.06 11.555a34.354 34.354 0 00-31.74 21.206 34.344 34.344 0 007.45 37.434 34.357 34.357 0 0058.647-24.29c0-18.97-15.382-34.35-34.357-34.35zm23.054 11.084c.424.423.424 1.111 0 1.535-.683.684-1.852.2-1.852-.767 0-.967 1.169-1.451 1.852-.768zm-23.267-9.636c.598 0 1.084.484 1.084 1.084 0 .966-1.169 1.45-1.852.768-.683-.685-.199-1.853.768-1.853zm-23.268 9.636a1.086 1.086 0 011.534 0c.685.685.199 1.852-.766 1.852-.967 0-1.45-1.167-.768-1.852zm-7.786 24.035c-.685.683-1.852.2-1.852-.767 0-.599.486-1.085 1.084-1.085.969 0 1.451 1.17.768 1.852zm7.786 22.5a1.085 1.085 0 010-1.535c.683-.683 1.85-.2 1.85.767 0 .969-1.165 1.451-1.85.768zm23.268 9.638a1.087 1.087 0 01-1.086-1.086c0-.965 1.168-1.449 1.852-.766.684.683.2 1.852-.766 1.852zm23.267-9.638a1.086 1.086 0 01-1.534 0c-.684-.685-.199-1.852.768-1.852.965 0 1.45 1.169.766 1.852zm-11.848 3.792a29.288 29.288 0 01-31.918-6.35 29.29 29.29 0 0120.71-49.999c16.177 0 29.29 13.114 29.29 29.29a29.292 29.292 0 01-18.082 27.059zm20.4-25.975c-.966 0-1.45-1.169-.766-1.852.683-.683 1.85-.2 1.85.767.002.6-.484 1.085-1.084 1.085zM42.31 86.07h-.683l-1.45-1.755a.983.983 0 01-.103-.144h-.014v1.898h-.499v-3.86h.5v1.816h.013c.028-.045.063-.093.102-.142l1.4-1.675h.615l-1.62 1.85 1.74 2.011zM43.302 84.627v1.443h-.5v-3.86H43.9c.416 0 .74.1.97.301.23.201.344.49.344.863 0 .378-.134.684-.403.92-.268.235-.605.346-1.01.333h-.498zm0-1.978v1.54h.46c.304 0 .536-.068.694-.205.157-.138.237-.334.237-.589 0-.497-.294-.744-.882-.744h-.51v-.002z" fill="#fff"/><path d="M45.925 86.07v-3.86h.499v1.615h.714c.392 0 .697.094.912.281.216.188.324.453.324.798 0 .358-.115.643-.343.852-.23.21-.541.314-.932.314h-1.174zm.499-1.806v1.368h.608c.264 0 .466-.06.607-.18.141-.122.21-.293.21-.515 0-.448-.271-.673-.813-.673h-.612zm2.89 1.806h-.5v-3.86h.5v3.86zM53.802 86.07v-2.557c0-.21.013-.464.038-.76h-.013a2.336 2.336 0 01-.114.388l-1.274 2.928h-.277l-1.27-2.904a2.61 2.61 0 01-.114-.412h-.015c.017.18.025.44.025.783v2.534h-.476v-3.86h.675l1.139 2.646c.086.202.144.36.172.474h.018c.087-.237.148-.398.183-.484l1.159-2.636h.643v3.86h-.499z" fill="#fff"/></svg>