<?xml version="1.0" encoding="utf-8"?><svg width="30" height="30" fill="none" xmlns="http://www.w3.org/2000/svg" viewBox="0 0 30 30"><g clip-path="url(#sclip0_343_132)"><path d="M18.08 21.052s2.39-1.368 3.015-1.697c.624-.33 1.27-.413 1.663-.174.595.364 5.586 3.684 6.006 3.978.42.295.623 1.136.045 1.96-.575.824-3.23 4.082-4.356 4.048-1.126-.037-5.811-.14-14.646-8.977C.974 11.356.87 6.67.834 5.543.798 4.416 4.056 1.76 4.88 1.185c.825-.576 1.668-.36 1.96.046.333.46 3.615 5.436 3.976 6.006.248.39.157 1.04-.173 1.664-.328.626-1.697 3.016-1.697 3.016s.965 1.645 4.227 4.907c3.262 3.262 4.907 4.228 4.907 4.228z" stroke="#CA3232" stroke-width="2" stroke-miterlimit="10"/></g><defs><clipPath id="sclip0_343_132"><path fill="#fff" d="M0 0h30v30H0z"/></clipPath></defs></svg>