<?xml version="1.0" encoding="utf-8"?><svg width="24" height="24" fill="none" xmlns="http://www.w3.org/2000/svg" viewBox="0 0 24 24"><path fill-rule="evenodd" clip-rule="evenodd" d="M12 24c6.627 0 12-5.373 12-12S18.627 0 12 0 0 5.373 0 12s5.373 12 12 12zm.624-7C7.841 17 5.113 13.622 5 8h2.396c.079 4.126 1.845 5.874 3.244 6.234V8h2.257v3.559c1.381-.154 2.833-1.775 3.322-3.559h2.256c-.376 2.198-1.95 3.82-3.069 4.486 1.12.541 2.912 1.955 3.594 4.514h-2.483c-.534-1.712-1.863-3.036-3.62-3.216V17h-.272z" fill="#fff"/></svg>