<?xml version="1.0" encoding="utf-8"?><svg width="24" height="24" fill="none" xmlns="http://www.w3.org/2000/svg" viewBox="0 0 24 24"><path fill-rule="evenodd" clip-rule="evenodd" d="M12 24c6.627 0 12-5.373 12-12S18.627 0 12 0 0 5.373 0 12s5.373 12 12 12zm6.304-16.062c.421.424.558 1.39.558 1.39s.14 1.134.14 2.266v1.06c0 1.136-.14 2.268-.14 2.268s-.137.965-.558 1.389c-.48.502-1.012.554-1.313.584a4.398 4.398 0 00-.09.009c-1.958.14-4.9.145-4.9.145s-3.64-.033-4.76-.14c-.055-.01-.121-.018-.197-.027-.355-.044-.908-.111-1.348-.571-.419-.424-.555-1.39-.555-1.39S5 13.788 5 12.656v-1.061c0-1.132.142-2.267.142-2.267s.134-.965.555-1.389c.48-.503 1.012-.555 1.313-.584l.09-.01c1.958-.142 4.897-.142 4.897-.142h.006s2.94 0 4.897.143l.09.01c.3.028.832.08 1.313.583zm-7.75 2.07v3.935l3.782-1.96-3.781-1.975z" fill="#fff"/></svg>